<ttFont>
<head>
    <!-- Most of this table will be recalculated by the compiler -->
    <tableVersion value="1.0"/>
    <fontRevision value="1.002"/>
    <checkSumAdjustment value="0x64fb8567"/>
    <magicNumber value="0x5f0f3cf5"/>
    <flags value="00000000 00101011"/>
    <unitsPerEm value="860"/>
    <created value="Wed Feb  1 14:42:49 2017"/>
    <modified value="Wed Mar  1 23:22:58 2017"/>
    <xMin value="0"/>
    <yMin value="-249"/>
    <xMax value="725"/>
    <yMax value="722"/>
    <macStyle value="00000000 00000000"/>
    <lowestRecPPEM value="8"/>
    <fontDirectionHint value="2"/>
    <indexToLocFormat value="0"/>
    <glyphDataFormat value="0"/>
  </head>
    <TTGlyph name=".notdef" xMin="28" yMin="0" xMax="254" yMax="573">
      <contour>
        <pt x="28" y="0" on="1"/>
        <pt x="28" y="573" on="1"/>
        <pt x="254" y="573" on="1"/>
        <pt x="254" y="0" on="1"/>
      </contour>
      <contour>
        <pt x="56" y="28" on="1"/>
        <pt x="226" y="28" on="1"/>
        <pt x="226" y="545" on="1"/>
        <pt x="56" y="545" on="1"/>
      </contour>
    </TTGlyph>
    <TTGlyph name="A" xMin="58" yMin="0" xMax="667" yMax="580">
      <contour>
        <pt x="160" y="580" on="1"/>
        <pt x="566" y="580" on="1"/>
        <pt x="667" y="0" on="1"/>
        <pt x="261" y="0" on="1"/>
        <pt x="256" y="30" on="1"/>
        <pt x="145" y="30" on="1"/>
        <pt x="139" y="0" on="1"/>
        <pt x="58" y="0" on="1"/>
      </contour>
      <contour>
        <pt x="200" y="348" on="1"/>
        <pt x="159" y="113" on="1"/>
        <pt x="241" y="113" on="1"/>
      </contour>
    </TTGlyph>
    <TTGlyph name="Adieresis" xMin="58" yMin="0" xMax="667" yMax="705">
      <component glyphName="uni0308" x="0" y="0" flags="0x1004"/>
      <component glyphName="A" x="0" y="0" flags="0x1004"/>
    </TTGlyph>
    <TTGlyph name="Amacron" xMin="58" yMin="0" xMax="667" yMax="705">
      <component glyphName="uni0304" x="0" y="0" flags="0x1004"/>
      <component glyphName="A" x="0" y="0" flags="0x1004"/>
    </TTGlyph>
    <TTGlyph name="B" xMin="58" yMin="0" xMax="667" yMax="580">
      <contour>
        <pt x="58" y="580" on="1"/>
        <pt x="464" y="580" on="1"/>
        <pt x="540" y="580" on="0"/>
        <pt x="646" y="489" on="0"/>
        <pt x="646" y="425" on="1"/>
        <pt x="646" y="354" on="0"/>
        <pt x="608" y="307" on="1"/>
        <pt x="636" y="285" on="0"/>
        <pt x="667" y="209" on="0"/>
        <pt x="667" y="166" on="1"/>
        <pt x="667" y="97" on="0"/>
        <pt x="548" y="0" on="0"/>
        <pt x="464" y="0" on="1"/>
        <pt x="58" y="0" on="1"/>
      </contour>
      <contour>
        <pt x="464" y="497" on="1"/>
        <pt x="464" y="352" on="1"/>
        <pt x="498" y="352" on="0"/>
        <pt x="545" y="394" on="0"/>
        <pt x="545" y="455" on="0"/>
        <pt x="498" y="497" on="0"/>
      </contour>
      <contour>
        <pt x="464" y="269" on="1"/>
        <pt x="464" y="103" on="1"/>
        <pt x="498" y="103" on="0"/>
        <pt x="545" y="152" on="0"/>
        <pt x="545" y="220" on="0"/>
        <pt x="498" y="269" on="0"/>
      </contour>
    </TTGlyph>
    <TTGlyph name="C" xMin="57" yMin="-17" xMax="667" yMax="597">
      <contour>
        <pt x="220" y="597" on="1"/>
        <pt x="505" y="597" on="1"/>
        <pt x="534" y="597" on="0"/>
        <pt x="587" y="565" on="0"/>
        <pt x="629" y="508" on="0"/>
        <pt x="644" y="470" on="1"/>
        <pt x="517" y="470" on="1"/>
        <pt x="494" y="509" on="0"/>
        <pt x="464" y="509" on="1"/>
        <pt x="464" y="188" on="1"/>
        <pt x="492" y="188" on="0"/>
        <pt x="513" y="221" on="1"/>
        <pt x="666" y="221" on="1"/>
        <pt x="659" y="121" on="0"/>
        <pt x="543" y="-17" on="0"/>
        <pt x="464" y="-17" on="1"/>
        <pt x="261" y="-17" on="1"/>
        <pt x="177" y="-17" on="0"/>
        <pt x="58" y="137" on="0"/>
        <pt x="58" y="246" on="1"/>
        <pt x="58" y="334" on="1"/>
        <pt x="58" y="405" on="0"/>
        <pt x="101" y="526" on="0"/>
        <pt x="176" y="597" on="0"/>
      </contour>
    </TTGlyph>
    <TTGlyph name="Cacute" xMin="57" yMin="-17" xMax="667" yMax="720">
      <component glyphName="acutecomb" x="0" y="0" flags="0x1004"/>
      <component glyphName="C" x="0" y="0" flags="0x1004"/>
    </TTGlyph>
    <TTGlyph name="Ccaron" xMin="57" yMin="-17" xMax="667" yMax="720">
      <component glyphName="uni030C" x="0" y="0" flags="0x1004"/>
      <component glyphName="C" x="0" y="0" flags="0x1004"/>
    </TTGlyph>
    <TTGlyph name="Ccircumflex" xMin="57" yMin="-17" xMax="667" yMax="720">
      <component glyphName="uni0302" x="0" y="0" flags="0x1004"/>
      <component glyphName="C" x="0" y="0" flags="0x1004"/>
    </TTGlyph>
    <TTGlyph name="Cdotaccent" xMin="57" yMin="-17" xMax="667" yMax="705">
      <component glyphName="uni0307" x="0" y="0" flags="0x1004"/>
      <component glyphName="C" x="0" y="0" flags="0x1004"/>
    </TTGlyph>
    <TTGlyph name="D" xMin="58" yMin="0" xMax="667" yMax="580">
      <contour>
        <pt x="58" y="580" on="1"/>
        <pt x="505" y="580" on="1"/>
        <pt x="572" y="580" on="0"/>
        <pt x="667" y="434" on="0"/>
        <pt x="667" y="331" on="1"/>
        <pt x="667" y="249" on="1"/>
        <pt x="667" y="146" on="0"/>
        <pt x="548" y="0" on="0"/>
        <pt x="464" y="0" on="1"/>
        <pt x="58" y="0" on="1"/>
      </contour>
      <contour>
        <pt x="464" y="497" on="1"/>
        <pt x="464" y="193" on="1"/>
        <pt x="498" y="193" on="0"/>
        <pt x="545" y="282" on="0"/>
        <pt x="545" y="408" on="0"/>
        <pt x="498" y="497" on="0"/>
      </contour>
    </TTGlyph>
    <TTGlyph name="Dcaron" xMin="58" yMin="0" xMax="667" yMax="720">
      <component glyphName="uni030C" x="0" y="0" flags="0x1004"/>
      <component glyphName="D" x="0" y="0" flags="0x1004"/>
    </TTGlyph>
    <TTGlyph name="E" xMin="58" yMin="0" xMax="667" yMax="580">
      <contour>
        <pt x="58" y="580" on="1"/>
        <pt x="667" y="580" on="1"/>
        <pt x="667" y="497" on="1"/>
        <pt x="464" y="497" on="1"/>
        <pt x="464" y="414" on="1"/>
        <pt x="545" y="414" on="1"/>
        <pt x="545" y="331" on="1"/>
        <pt x="464" y="331" on="1"/>
        <pt x="464" y="83" on="1"/>
        <pt x="667" y="83" on="1"/>
        <pt x="667" y="0" on="1"/>
        <pt x="58" y="0" on="1"/>
      </contour>
    </TTGlyph>
    <TTGlyph name="Ecaron" xMin="58" yMin="0" xMax="667" yMax="720">
      <component glyphName="uni030C" x="0" y="0" flags="0x1004"/>
      <component glyphName="E" x="0" y="0" flags="0x1004"/>
    </TTGlyph>
    <TTGlyph name="Edieresis" xMin="58" yMin="0" xMax="667" yMax="705">
      <component glyphName="uni0308" x="0" y="0" flags="0x1004"/>
      <component glyphName="E" x="0" y="0" flags="0x1004"/>
    </TTGlyph>
    <TTGlyph name="Edotaccent" xMin="58" yMin="0" xMax="667" yMax="705">
      <component glyphName="uni0307" x="0" y="0" flags="0x1004"/>
      <component glyphName="E" x="0" y="0" flags="0x1004"/>
    </TTGlyph>
    <TTGlyph name="Emacron" xMin="58" yMin="0" xMax="667" yMax="705">
      <component glyphName="uni0304" x="0" y="0" flags="0x1004"/>
      <component glyphName="E" x="0" y="0" flags="0x1004"/>
    </TTGlyph>
    <TTGlyph name="F" xMin="58" yMin="0" xMax="667" yMax="580">
      <contour>
        <pt x="58" y="580" on="1"/>
        <pt x="667" y="580" on="1"/>
        <pt x="667" y="497" on="1"/>
        <pt x="464" y="497" on="1"/>
        <pt x="464" y="414" on="1"/>
        <pt x="545" y="414" on="1"/>
        <pt x="545" y="331" on="1"/>
        <pt x="464" y="331" on="1"/>
        <pt x="464" y="0" on="1"/>
        <pt x="58" y="0" on="1"/>
      </contour>
    </TTGlyph>
    <TTGlyph name="G" xMin="58" yMin="0" xMax="667" yMax="597">
      <contour>
        <pt x="220" y="597" on="1"/>
        <pt x="505" y="597" on="1"/>
        <pt x="534" y="597" on="0"/>
        <pt x="587" y="565" on="0"/>
        <pt x="629" y="508" on="0"/>
        <pt x="644" y="470" on="1"/>
        <pt x="517" y="470" on="1"/>
        <pt x="494" y="509" on="0"/>
        <pt x="464" y="509" on="1"/>
        <pt x="464" y="193" on="1"/>
        <pt x="490" y="193" on="0"/>
        <pt x="511" y="221" on="1"/>
        <pt x="511" y="304" on="1"/>
        <pt x="667" y="304" on="1"/>
        <pt x="667" y="0" on="1"/>
        <pt x="261" y="0" on="1"/>
        <pt x="177" y="0" on="0"/>
        <pt x="58" y="146" on="0"/>
        <pt x="58" y="249" on="1"/>
        <pt x="58" y="334" on="1"/>
        <pt x="58" y="405" on="0"/>
        <pt x="101" y="526" on="0"/>
        <pt x="176" y="597" on="0"/>
      </contour>
    </TTGlyph>
    <TTGlyph name="Gcircumflex" xMin="58" yMin="0" xMax="667" yMax="720">
      <component glyphName="uni0302" x="0" y="0" flags="0x1004"/>
      <component glyphName="G" x="0" y="0" flags="0x1004"/>
    </TTGlyph>
    <TTGlyph name="Gdotaccent" xMin="58" yMin="0" xMax="667" yMax="705">
      <component glyphName="uni0307" x="0" y="0" flags="0x1004"/>
      <component glyphName="G" x="0" y="0" flags="0x1004"/>
    </TTGlyph>
    <TTGlyph name="H" xMin="58" yMin="0" xMax="667" yMax="580">
      <contour>
        <pt x="58" y="580" on="1"/>
        <pt x="464" y="580" on="1"/>
        <pt x="464" y="414" on="1"/>
        <pt x="545" y="414" on="1"/>
        <pt x="545" y="580" on="1"/>
        <pt x="667" y="580" on="1"/>
        <pt x="667" y="0" on="1"/>
        <pt x="545" y="0" on="1"/>
        <pt x="545" y="331" on="1"/>
        <pt x="464" y="331" on="1"/>
        <pt x="464" y="0" on="1"/>
        <pt x="58" y="0" on="1"/>
      </contour>
    </TTGlyph>
    <TTGlyph name="I" xMin="159" yMin="0" xMax="566" yMax="580">
      <contour>
        <pt x="160" y="580" on="1"/>
        <pt x="566" y="580" on="1"/>
        <pt x="566" y="0" on="1"/>
        <pt x="160" y="0" on="1"/>
      </contour>
    </TTGlyph>
    <TTGlyph name="IJ" xMin="58" yMin="-17" xMax="668" yMax="581">
      <contour>
        <pt x="261" y="580" on="1"/>
        <pt x="667" y="580" on="1"/>
        <pt x="667" y="249" on="1"/>
        <pt x="668" y="249" on="1"/>
        <pt x="668" y="139" on="0"/>
        <pt x="513" y="-17" on="0"/>
        <pt x="403" y="-17" on="1"/>
        <pt x="322" y="-17" on="1"/>
        <pt x="213" y="-16" on="0"/>
        <pt x="58" y="139" on="0"/>
        <pt x="58" y="249" on="1"/>
        <pt x="139" y="249" on="1"/>
        <pt x="139" y="212" on="0"/>
        <pt x="211" y="160" on="0"/>
        <pt x="261" y="160" on="1"/>
      </contour>
      <contour>
        <pt x="180" y="580" on="1"/>
        <pt x="180" y="331" on="1"/>
        <pt x="58" y="331" on="1"/>
        <pt x="58" y="580" on="1"/>
      </contour>
    </TTGlyph>
    <TTGlyph name="Idieresis" xMin="159" yMin="0" xMax="566" yMax="705">
      <component glyphName="uni0308" x="0" y="0" flags="0x1004"/>
      <component glyphName="I" x="0" y="0" flags="0x1004"/>
    </TTGlyph>
    <TTGlyph name="Idotaccent" xMin="159" yMin="0" xMax="566" yMax="705">
      <component glyphName="uni0307" x="0" y="0" flags="0x1004"/>
      <component glyphName="I" x="0" y="0" flags="0x1004"/>
    </TTGlyph>
    <TTGlyph name="Imacron" xMin="159" yMin="0" xMax="566" yMax="705">
      <component glyphName="uni0304" x="0" y="0" flags="0x1004"/>
      <component glyphName="I" x="0" y="0" flags="0x1004"/>
    </TTGlyph>
    <TTGlyph name="J" xMin="58" yMin="-17" xMax="668" yMax="580">
      <contour>
        <pt x="261" y="580" on="1"/>
        <pt x="667" y="580" on="1"/>
        <pt x="667" y="249" on="1"/>
        <pt x="668" y="249" on="1"/>
        <pt x="668" y="139" on="0"/>
        <pt x="513" y="-17" on="0"/>
        <pt x="403" y="-17" on="1"/>
        <pt x="322" y="-17" on="1"/>
        <pt x="213" y="-16" on="0"/>
        <pt x="58" y="139" on="0"/>
        <pt x="58" y="249" on="1"/>
        <pt x="139" y="249" on="1"/>
        <pt x="139" y="212" on="0"/>
        <pt x="211" y="160" on="0"/>
        <pt x="261" y="160" on="1"/>
      </contour>
    </TTGlyph>
    <TTGlyph name="K" xMin="58" yMin="0" xMax="667" yMax="580">
      <contour>
        <pt x="58" y="580" on="1"/>
        <pt x="464" y="580" on="1"/>
        <pt x="464" y="530" on="1"/>
        <pt x="586" y="580" on="1"/>
        <pt x="667" y="580" on="1"/>
        <pt x="667" y="497" on="1"/>
        <pt x="586" y="464" on="1"/>
        <pt x="667" y="0" on="1"/>
        <pt x="498" y="0" on="1"/>
        <pt x="464" y="193" on="1"/>
        <pt x="464" y="0" on="1"/>
        <pt x="58" y="0" on="1"/>
      </contour>
    </TTGlyph>
    <TTGlyph name="L" xMin="58" yMin="0" xMax="667" yMax="580">
      <contour>
        <pt x="58" y="580" on="1"/>
        <pt x="464" y="580" on="1"/>
        <pt x="464" y="83" on="1"/>
        <pt x="667" y="83" on="1"/>
        <pt x="667" y="0" on="1"/>
        <pt x="667" y="0" on="0"/>
        <pt x="58" y="0" on="1"/>
      </contour>
    </TTGlyph>
    <TTGlyph name="M" xMin="58" yMin="0" xMax="667" yMax="580">
      <contour>
        <pt x="58" y="580" on="1"/>
        <pt x="464" y="580" on="1"/>
        <pt x="505" y="563" on="1"/>
        <pt x="545" y="580" on="1"/>
        <pt x="667" y="580" on="1"/>
        <pt x="667" y="0" on="1"/>
        <pt x="545" y="0" on="1"/>
        <pt x="545" y="497" on="1"/>
        <pt x="505" y="480" on="1"/>
        <pt x="464" y="497" on="1"/>
        <pt x="464" y="0" on="1"/>
        <pt x="58" y="0" on="1"/>
      </contour>
    </TTGlyph>
    <TTGlyph name="N" xMin="58" yMin="0" xMax="667" yMax="580">
      <contour>
        <pt x="58" y="580" on="1"/>
        <pt x="464" y="580" on="1"/>
        <pt x="545" y="547" on="1"/>
        <pt x="545" y="580" on="1"/>
        <pt x="667" y="580" on="1"/>
        <pt x="667" y="0" on="1"/>
        <pt x="545" y="0" on="1"/>
        <pt x="545" y="464" on="1"/>
        <pt x="464" y="497" on="1"/>
        <pt x="464" y="0" on="1"/>
        <pt x="58" y="0" on="1"/>
      </contour>
    </TTGlyph>
    <TTGlyph name="O" xMin="57" yMin="-17" xMax="667" yMax="597">
      <contour>
        <pt x="220" y="597" on="1"/>
        <pt x="505" y="597" on="1"/>
        <pt x="572" y="597" on="0"/>
        <pt x="667" y="443" on="0"/>
        <pt x="667" y="334" on="1"/>
        <pt x="667" y="246" on="1"/>
        <pt x="667" y="137" on="0"/>
        <pt x="548" y="-17" on="0"/>
        <pt x="464" y="-17" on="1"/>
        <pt x="261" y="-17" on="1"/>
        <pt x="177" y="-17" on="0"/>
        <pt x="58" y="137" on="0"/>
        <pt x="58" y="246" on="1"/>
        <pt x="58" y="334" on="1"/>
        <pt x="58" y="405" on="0"/>
        <pt x="101" y="526" on="0"/>
        <pt x="176" y="597" on="0"/>
      </contour>
      <contour>
        <pt x="464" y="509" on="1"/>
        <pt x="464" y="188" on="1"/>
        <pt x="486" y="188" on="0"/>
        <pt x="523" y="231" on="0"/>
        <pt x="545" y="305" on="0"/>
        <pt x="545" y="348" on="1"/>
        <pt x="545" y="415" on="0"/>
        <pt x="498" y="509" on="0"/>
      </contour>
    </TTGlyph>
    <TTGlyph name="Odieresis" xMin="57" yMin="-17" xMax="667" yMax="705">
      <component glyphName="uni0308" x="0" y="0" flags="0x1004"/>
      <component glyphName="O" x="0" y="0" flags="0x1004"/>
    </TTGlyph>
    <TTGlyph name="Omacron" xMin="57" yMin="-17" xMax="667" yMax="705">
      <component glyphName="uni0304" x="0" y="0" flags="0x1004"/>
      <component glyphName="O" x="0" y="0" flags="0x1004"/>
    </TTGlyph>
    <TTGlyph name="P" xMin="58" yMin="0" xMax="667" yMax="580">
      <contour>
        <pt x="58" y="580" on="1"/>
        <pt x="505" y="580" on="1"/>
        <pt x="572" y="580" on="0"/>
        <pt x="667" y="434" on="0"/>
        <pt x="667" y="228" on="0"/>
        <pt x="548" y="83" on="0"/>
        <pt x="464" y="83" on="1"/>
        <pt x="464" y="0" on="1"/>
        <pt x="58" y="0" on="1"/>
      </contour>
      <contour>
        <pt x="464" y="497" on="1"/>
        <pt x="464" y="331" on="1"/>
        <pt x="481" y="331" on="0"/>
        <pt x="511" y="345" on="0"/>
        <pt x="532" y="367" on="0"/>
        <pt x="545" y="397" on="0"/>
        <pt x="545" y="414" on="1"/>
        <pt x="545" y="449" on="0"/>
        <pt x="498" y="497" on="0"/>
      </contour>
    </TTGlyph>
    <TTGlyph name="Q" xMin="58" yMin="0" xMax="667" yMax="597">
      <contour>
        <pt x="220" y="597" on="1"/>
        <pt x="505" y="597" on="1"/>
        <pt x="572" y="597" on="0"/>
        <pt x="667" y="451" on="0"/>
        <pt x="667" y="348" on="1"/>
        <pt x="667" y="249" on="1"/>
        <pt x="667" y="166" on="0"/>
        <pt x="626" y="100" on="1"/>
        <pt x="667" y="83" on="1"/>
        <pt x="667" y="0" on="1"/>
        <pt x="586" y="0" on="1"/>
        <pt x="541" y="18" on="1"/>
        <pt x="504" y="0" on="0"/>
        <pt x="464" y="0" on="1"/>
        <pt x="261" y="0" on="1"/>
        <pt x="177" y="0" on="0"/>
        <pt x="58" y="146" on="0"/>
        <pt x="58" y="249" on="1"/>
        <pt x="58" y="348" on="1"/>
        <pt x="58" y="451" on="0"/>
        <pt x="153" y="597" on="0"/>
      </contour>
      <contour>
        <pt x="464" y="514" on="1"/>
        <pt x="464" y="193" on="1"/>
        <pt x="475" y="193" on="0"/>
        <pt x="496" y="207" on="0"/>
        <pt x="514" y="230" on="0"/>
        <pt x="529" y="262" on="0"/>
        <pt x="539" y="299" on="0"/>
        <pt x="545" y="341" on="0"/>
        <pt x="545" y="362" on="1"/>
        <pt x="545" y="425" on="0"/>
        <pt x="498" y="514" on="0"/>
      </contour>
    </TTGlyph>
    <TTGlyph name="R" xMin="58" yMin="0" xMax="667" yMax="580">
      <contour>
        <pt x="58" y="580" on="1"/>
        <pt x="505" y="580" on="1"/>
        <pt x="572" y="580" on="0"/>
        <pt x="667" y="434" on="0"/>
        <pt x="667" y="331" on="1"/>
        <pt x="667" y="266" on="0"/>
        <pt x="614" y="152" on="0"/>
        <pt x="568" y="118" on="1"/>
        <pt x="667" y="0" on="1"/>
        <pt x="545" y="0" on="1"/>
        <pt x="464" y="97" on="1"/>
        <pt x="464" y="0" on="1"/>
        <pt x="58" y="0" on="1"/>
      </contour>
      <contour>
        <pt x="464" y="497" on="1"/>
        <pt x="464" y="331" on="1"/>
        <pt x="498" y="331" on="0"/>
        <pt x="545" y="380" on="0"/>
        <pt x="545" y="449" on="0"/>
        <pt x="498" y="497" on="0"/>
      </contour>
    </TTGlyph>
    <TTGlyph name="T" xMin="58" yMin="0" xMax="667" yMax="580">
      <contour>
        <pt x="58" y="580" on="1"/>
        <pt x="667" y="580" on="1"/>
        <pt x="667" y="497" on="1"/>
        <pt x="566" y="497" on="1"/>
        <pt x="566" y="0" on="1"/>
        <pt x="160" y="0" on="1"/>
        <pt x="160" y="497" on="1"/>
        <pt x="58" y="497" on="1"/>
      </contour>
    </TTGlyph>
    <TTGlyph name="U" xMin="58" yMin="-17" xMax="667" yMax="580">
      <contour>
        <pt x="58" y="580" on="1"/>
        <pt x="261" y="580" on="1"/>
        <pt x="464" y="580" on="1"/>
        <pt x="464" y="282" on="1"/>
        <pt x="464" y="239" on="1"/>
        <pt x="464" y="196" on="1"/>
        <pt x="498" y="196" on="0"/>
        <pt x="545" y="246" on="0"/>
        <pt x="545" y="282" on="1"/>
        <pt x="545" y="580" on="1"/>
        <pt x="667" y="580" on="1"/>
        <pt x="667" y="239" on="1"/>
        <pt x="667" y="239" on="1"/>
        <pt x="667" y="133" on="0"/>
        <pt x="512" y="-17" on="0"/>
        <pt x="403" y="-17" on="1"/>
        <pt x="322" y="-17" on="1"/>
        <pt x="213" y="-17" on="0"/>
        <pt x="58" y="133" on="0"/>
        <pt x="58" y="239" on="1"/>
      </contour>
    </TTGlyph>
    <TTGlyph name="Udieresis" xMin="58" yMin="-17" xMax="667" yMax="705">
      <component glyphName="uni0308" x="0" y="0" flags="0x1004"/>
      <component glyphName="U" x="0" y="0" flags="0x1004"/>
    </TTGlyph>
    <TTGlyph name="Umacron" xMin="58" yMin="-17" xMax="667" yMax="705">
      <component glyphName="uni0304" x="0" y="0" flags="0x1004"/>
      <component glyphName="U" x="0" y="0" flags="0x1004"/>
    </TTGlyph>
    <TTGlyph name="V" xMin="58" yMin="0" xMax="667" yMax="580">
      <contour>
        <pt x="58" y="580" on="1"/>
        <pt x="464" y="580" on="1"/>
        <pt x="525" y="232" on="1"/>
        <pt x="586" y="580" on="1"/>
        <pt x="667" y="580" on="1"/>
        <pt x="566" y="0" on="1"/>
        <pt x="160" y="0" on="1"/>
      </contour>
    </TTGlyph>
    <TTGlyph name="W" xMin="0" yMin="0" xMax="725" yMax="580">
      <contour>
        <pt x="0" y="580" on="1"/>
        <pt x="406" y="580" on="1"/>
        <pt x="467" y="232" on="1"/>
        <pt x="484" y="331" on="1"/>
        <pt x="566" y="331" on="1"/>
        <pt x="583" y="232" on="1"/>
        <pt x="644" y="580" on="1"/>
        <pt x="725" y="580" on="1"/>
        <pt x="624" y="0" on="1"/>
        <pt x="542" y="0" on="1"/>
        <pt x="525" y="99" on="1"/>
        <pt x="508" y="0" on="1"/>
        <pt x="102" y="0" on="1"/>
      </contour>
    </TTGlyph>
    <TTGlyph name="Wdieresis" xMin="0" yMin="0" xMax="725" yMax="705">
      <component glyphName="uni0308" x="0" y="0" flags="0x1004"/>
      <component glyphName="W" x="0" y="0" flags="0x1004"/>
    </TTGlyph>
    <TTGlyph name="X" xMin="58" yMin="0" xMax="667" yMax="580">
      <contour>
        <pt x="58" y="580" on="1"/>
        <pt x="464" y="580" on="1"/>
        <pt x="525" y="406" on="1"/>
        <pt x="586" y="580" on="1"/>
        <pt x="667" y="580" on="1"/>
        <pt x="565" y="290" on="1"/>
        <pt x="667" y="0" on="1"/>
        <pt x="261" y="0" on="1"/>
        <pt x="200" y="174" on="1"/>
        <pt x="139" y="0" on="1"/>
        <pt x="58" y="0" on="1"/>
        <pt x="160" y="290" on="1"/>
      </contour>
    </TTGlyph>
    <TTGlyph name="Y" xMin="58" yMin="0" xMax="667" yMax="580">
      <contour>
        <pt x="58" y="580" on="1"/>
        <pt x="139" y="580" on="1"/>
        <pt x="362" y="489" on="1"/>
        <pt x="586" y="580" on="1"/>
        <pt x="667" y="580" on="1"/>
        <pt x="667" y="497" on="1"/>
        <pt x="566" y="456" on="1"/>
        <pt x="566" y="0" on="1"/>
        <pt x="160" y="0" on="1"/>
        <pt x="160" y="456" on="1"/>
        <pt x="58" y="497" on="1"/>
      </contour>
    </TTGlyph>
    <TTGlyph name="Ydieresis" xMin="58" yMin="0" xMax="667" yMax="705">
      <component glyphName="uni0308" x="0" y="0" flags="0x1004"/>
      <component glyphName="Y" x="0" y="0" flags="0x1004"/>
    </TTGlyph>
    <TTGlyph name="Z" xMin="58" yMin="0" xMax="667" yMax="580">
      <contour>
        <pt x="58" y="580" on="1"/>
        <pt x="667" y="580" on="1"/>
        <pt x="493" y="83" on="1"/>
        <pt x="667" y="83" on="1"/>
        <pt x="667" y="0" on="1"/>
        <pt x="58" y="0" on="1"/>
        <pt x="232" y="497" on="1"/>
        <pt x="58" y="497" on="1"/>
      </contour>
    </TTGlyph>
    <TTGlyph name="Zdotaccent" xMin="58" yMin="0" xMax="667" yMax="705">
      <component glyphName="uni0307" x="0" y="0" flags="0x1004"/>
      <component glyphName="Z" x="0" y="0" flags="0x1004"/>
    </TTGlyph>
    <TTGlyph name="a" xMin="58" yMin="0" xMax="667" yMax="580">
      <component glyphName="A" x="0" y="0" flags="0x1004"/>
    </TTGlyph>
    <TTGlyph name="acute" xMin="301" yMin="583" xMax="424" yMax="720">
      <component glyphName="acutecomb" x="0" y="0" flags="0x1004"/>
    </TTGlyph>
    <TTGlyph name="acutecomb" xMin="301" yMin="583" xMax="424" yMax="720">
      <component glyphName="gravecomb" x="725" y="0" scalex="-1.0" scaley="1.0" flags="0x1004"/>
    </TTGlyph>
    <TTGlyph name="adieresis" xMin="58" yMin="0" xMax="667" yMax="705">
      <component glyphName="Adieresis" x="0" y="0" flags="0x1004"/>
    </TTGlyph>
    <TTGlyph name="amacron" xMin="58" yMin="0" xMax="667" yMax="705">
      <component glyphName="Amacron" x="0" y="0" flags="0x1004"/>
    </TTGlyph>
    <TTGlyph name="asciicircum" xMin="240" yMin="583" xMax="485" yMax="720">
      <component glyphName="uni0302" x="0" y="0" flags="0x1004"/>
    </TTGlyph>
    <TTGlyph name="b" xMin="58" yMin="0" xMax="667" yMax="580">
      <component glyphName="B" x="0" y="0" flags="0x1004"/>
    </TTGlyph>
    <TTGlyph name="bar" xMin="321" yMin="0" xMax="404" yMax="580">
      <contour>
        <pt x="322" y="580" on="1"/>
        <pt x="403" y="580" on="1"/>
        <pt x="403" y="0" on="1"/>
        <pt x="322" y="0" on="1"/>
      </contour>
    </TTGlyph>
    <TTGlyph name="block" xMin="0" yMin="-140" xMax="725" yMax="720">
      <contour>
        <pt x="725" y="720" on="1"/>
        <pt x="725" y="-140" on="1"/>
        <pt x="0" y="-140" on="1"/>
        <pt x="0" y="720" on="1"/>
      </contour>
    </TTGlyph>
    <TTGlyph name="brokenbar" xMin="321" yMin="0" xMax="404" yMax="580">
      <contour>
        <pt x="322" y="580" on="1"/>
        <pt x="403" y="580" on="1"/>
        <pt x="403" y="331" on="1"/>
        <pt x="322" y="331" on="1"/>
      </contour>
      <contour>
        <pt x="322" y="249" on="1"/>
        <pt x="403" y="249" on="1"/>
        <pt x="403" y="0" on="1"/>
        <pt x="322" y="0" on="1"/>
      </contour>
    </TTGlyph>
    <TTGlyph name="c" xMin="57" yMin="-17" xMax="667" yMax="597">
      <component glyphName="C" x="0" y="0" flags="0x1004"/>
    </TTGlyph>
    <TTGlyph name="cacute" xMin="57" yMin="-17" xMax="667" yMax="720">
      <component glyphName="Cacute" x="0" y="0" flags="0x1004"/>
    </TTGlyph>
    <TTGlyph name="ccaron" xMin="57" yMin="-17" xMax="667" yMax="720">
      <component glyphName="Ccaron" x="0" y="0" flags="0x1004"/>
    </TTGlyph>
    <TTGlyph name="ccircumflex" xMin="57" yMin="-17" xMax="667" yMax="720">
      <component glyphName="Ccircumflex" x="0" y="0" flags="0x1004"/>
    </TTGlyph>
    <TTGlyph name="cdotaccent" xMin="57" yMin="-17" xMax="667" yMax="705">
      <component glyphName="Cdotaccent" x="0" y="0" flags="0x1004"/>
    </TTGlyph>
    <TTGlyph name="colon" xMin="321" yMin="0" xMax="404" yMax="415">
      <contour>
        <pt x="346" y="83" on="0"/>
        <pt x="379" y="83" on="0"/>
        <pt x="403" y="59" on="0"/>
        <pt x="403" y="24" on="0"/>
        <pt x="379" y="0" on="0"/>
        <pt x="346" y="0" on="0"/>
        <pt x="322" y="24" on="0"/>
        <pt x="322" y="59" on="0"/>
      </contour>
      <contour>
        <pt x="362" y="414" on="1"/>
        <pt x="379" y="414" on="0"/>
        <pt x="403" y="390" on="0"/>
        <pt x="403" y="356" on="0"/>
        <pt x="379" y="331" on="0"/>
        <pt x="346" y="331" on="0"/>
        <pt x="322" y="356" on="0"/>
        <pt x="322" y="373" on="1"/>
        <pt x="322" y="384" on="0"/>
        <pt x="333" y="403" on="0"/>
        <pt x="351" y="414" on="0"/>
      </contour>
    </TTGlyph>
    <TTGlyph name="d" xMin="58" yMin="0" xMax="667" yMax="580">
      <component glyphName="D" x="0" y="0" flags="0x1004"/>
    </TTGlyph>
    <TTGlyph name="dieresis" xMin="240" yMin="621" xMax="485" yMax="705">
      <component glyphName="uni0308" x="0" y="0" flags="0x1004"/>
    </TTGlyph>
    <TTGlyph name="dkshade" xMin="0" yMin="-140" xMax="725" yMax="720">
      <contour>
        <pt x="0" y="720" on="1"/>
        <pt x="725" y="720" on="1"/>
        <pt x="725" y="634" on="1"/>
        <pt x="652" y="634" on="1"/>
        <pt x="652" y="548" on="1"/>
        <pt x="725" y="548" on="1"/>
        <pt x="725" y="462" on="1"/>
        <pt x="652" y="462" on="1"/>
        <pt x="652" y="376" on="1"/>
        <pt x="725" y="376" on="1"/>
        <pt x="725" y="290" on="1"/>
        <pt x="652" y="290" on="1"/>
        <pt x="652" y="204" on="1"/>
        <pt x="725" y="204" on="1"/>
        <pt x="725" y="118" on="1"/>
        <pt x="652" y="118" on="1"/>
        <pt x="652" y="32" on="1"/>
        <pt x="725" y="32" on="1"/>
        <pt x="725" y="-54" on="1"/>
        <pt x="652" y="-54" on="1"/>
        <pt x="652" y="-140" on="1"/>
        <pt x="580" y="-140" on="1"/>
        <pt x="580" y="-54" on="1"/>
        <pt x="508" y="-54" on="1"/>
        <pt x="508" y="-140" on="1"/>
        <pt x="435" y="-140" on="1"/>
        <pt x="435" y="-54" on="1"/>
        <pt x="362" y="-54" on="1"/>
        <pt x="362" y="-140" on="1"/>
        <pt x="290" y="-140" on="1"/>
        <pt x="290" y="-54" on="1"/>
        <pt x="218" y="-54" on="1"/>
        <pt x="218" y="-140" on="1"/>
        <pt x="145" y="-140" on="1"/>
        <pt x="145" y="-54" on="1"/>
        <pt x="72" y="-54" on="1"/>
        <pt x="72" y="-140" on="1"/>
        <pt x="0" y="-140" on="1"/>
      </contour>
      <contour>
        <pt x="72" y="634" on="1"/>
        <pt x="72" y="548" on="1"/>
        <pt x="145" y="548" on="1"/>
        <pt x="145" y="634" on="1"/>
      </contour>
      <contour>
        <pt x="218" y="634" on="1"/>
        <pt x="218" y="548" on="1"/>
        <pt x="290" y="548" on="1"/>
        <pt x="290" y="634" on="1"/>
      </contour>
      <contour>
        <pt x="362" y="634" on="1"/>
        <pt x="362" y="548" on="1"/>
        <pt x="435" y="548" on="1"/>
        <pt x="435" y="634" on="1"/>
      </contour>
      <contour>
        <pt x="508" y="634" on="1"/>
        <pt x="508" y="548" on="1"/>
        <pt x="580" y="548" on="1"/>
        <pt x="580" y="634" on="1"/>
      </contour>
      <contour>
        <pt x="72" y="462" on="1"/>
        <pt x="72" y="376" on="1"/>
        <pt x="145" y="376" on="1"/>
        <pt x="145" y="462" on="1"/>
      </contour>
      <contour>
        <pt x="218" y="462" on="1"/>
        <pt x="218" y="376" on="1"/>
        <pt x="290" y="376" on="1"/>
        <pt x="290" y="462" on="1"/>
      </contour>
      <contour>
        <pt x="362" y="462" on="1"/>
        <pt x="362" y="376" on="1"/>
        <pt x="435" y="376" on="1"/>
        <pt x="435" y="462" on="1"/>
      </contour>
      <contour>
        <pt x="508" y="462" on="1"/>
        <pt x="508" y="376" on="1"/>
        <pt x="580" y="376" on="1"/>
        <pt x="580" y="462" on="1"/>
      </contour>
      <contour>
        <pt x="72" y="290" on="1"/>
        <pt x="72" y="204" on="1"/>
        <pt x="145" y="204" on="1"/>
        <pt x="145" y="290" on="1"/>
      </contour>
      <contour>
        <pt x="218" y="290" on="1"/>
        <pt x="218" y="204" on="1"/>
        <pt x="290" y="204" on="1"/>
        <pt x="290" y="290" on="1"/>
      </contour>
      <contour>
        <pt x="362" y="290" on="1"/>
        <pt x="362" y="204" on="1"/>
        <pt x="435" y="204" on="1"/>
        <pt x="435" y="290" on="1"/>
      </contour>
      <contour>
        <pt x="508" y="290" on="1"/>
        <pt x="508" y="204" on="1"/>
        <pt x="580" y="204" on="1"/>
        <pt x="580" y="290" on="1"/>
      </contour>
      <contour>
        <pt x="72" y="118" on="1"/>
        <pt x="72" y="32" on="1"/>
        <pt x="145" y="32" on="1"/>
        <pt x="145" y="118" on="1"/>
      </contour>
      <contour>
        <pt x="218" y="118" on="1"/>
        <pt x="218" y="32" on="1"/>
        <pt x="290" y="32" on="1"/>
        <pt x="290" y="118" on="1"/>
      </contour>
      <contour>
        <pt x="362" y="118" on="1"/>
        <pt x="362" y="32" on="1"/>
        <pt x="435" y="32" on="1"/>
        <pt x="435" y="118" on="1"/>
      </contour>
      <contour>
        <pt x="508" y="118" on="1"/>
        <pt x="508" y="32" on="1"/>
        <pt x="580" y="32" on="1"/>
        <pt x="580" y="118" on="1"/>
      </contour>
    </TTGlyph>
    <TTGlyph name="dnblock" xMin="0" yMin="-220" xMax="725" yMax="210">
      <component glyphName="upblock" x="0" y="500" scalex="1.0" scaley="-1.0" flags="0x1004"/>
    </TTGlyph>
    <TTGlyph name="dotbelowcomb" xMin="321" yMin="-125" xMax="404" yMax="-41">
      <component glyphName="uni0307" x="0" y="580" scalex="1.0" scaley="-1.0" flags="0x1004"/>
    </TTGlyph>
    <TTGlyph name="e" xMin="58" yMin="0" xMax="667" yMax="580">
      <component glyphName="E" x="0" y="0" flags="0x1004"/>
    </TTGlyph>
    <TTGlyph name="ecaron" xMin="58" yMin="0" xMax="667" yMax="720">
      <component glyphName="Ecaron" x="0" y="0" flags="0x1004"/>
    </TTGlyph>
    <TTGlyph name="edieresis" xMin="58" yMin="0" xMax="667" yMax="705">
      <component glyphName="Edieresis" x="0" y="0" flags="0x1004"/>
    </TTGlyph>
    <TTGlyph name="edotaccent" xMin="58" yMin="0" xMax="667" yMax="705">
      <component glyphName="Edotaccent" x="0" y="0" flags="0x1004"/>
    </TTGlyph>
    <TTGlyph name="ellipsis" xMin="159" yMin="0" xMax="566" yMax="83">
      <contour>
        <pt x="508" y="83" on="0"/>
        <pt x="542" y="83" on="0"/>
        <pt x="566" y="59" on="0"/>
        <pt x="565" y="24" on="0"/>
        <pt x="542" y="0" on="0"/>
        <pt x="508" y="0" on="0"/>
        <pt x="484" y="24" on="0"/>
        <pt x="484" y="59" on="0"/>
      </contour>
      <contour>
        <pt x="346" y="83" on="0"/>
        <pt x="379" y="83" on="0"/>
        <pt x="403" y="59" on="0"/>
        <pt x="403" y="24" on="0"/>
        <pt x="379" y="0" on="0"/>
        <pt x="346" y="0" on="0"/>
        <pt x="322" y="24" on="0"/>
        <pt x="322" y="59" on="0"/>
      </contour>
      <contour>
        <pt x="183" y="83" on="0"/>
        <pt x="217" y="83" on="0"/>
        <pt x="241" y="59" on="0"/>
        <pt x="241" y="24" on="0"/>
        <pt x="217" y="0" on="0"/>
        <pt x="183" y="0" on="0"/>
        <pt x="160" y="24" on="0"/>
        <pt x="160" y="59" on="0"/>
      </contour>
    </TTGlyph>
    <TTGlyph name="emacron" xMin="58" yMin="0" xMax="667" yMax="705">
      <component glyphName="Emacron" x="0" y="0" flags="0x1004"/>
    </TTGlyph>
    <TTGlyph name="equal" xMin="159" yMin="82" xMax="566" yMax="332">
      <contour>
        <pt x="566" y="331" on="1"/>
        <pt x="566" y="249" on="1"/>
        <pt x="160" y="249" on="1"/>
        <pt x="160" y="331" on="1"/>
      </contour>
      <contour>
        <pt x="566" y="166" on="1"/>
        <pt x="566" y="83" on="1"/>
        <pt x="160" y="83" on="1"/>
        <pt x="160" y="166" on="1"/>
      </contour>
    </TTGlyph>
    <TTGlyph name="exclam" xMin="321" yMin="0" xMax="404" yMax="580">
      <contour>
        <pt x="346" y="83" on="0"/>
        <pt x="379" y="83" on="0"/>
        <pt x="403" y="59" on="0"/>
        <pt x="403" y="24" on="0"/>
        <pt x="379" y="0" on="0"/>
        <pt x="346" y="0" on="0"/>
        <pt x="322" y="24" on="0"/>
        <pt x="322" y="59" on="0"/>
      </contour>
      <contour>
        <pt x="322" y="580" on="1"/>
        <pt x="403" y="580" on="1"/>
        <pt x="403" y="166" on="1"/>
        <pt x="322" y="166" on="1"/>
      </contour>
    </TTGlyph>
    <TTGlyph name="exclamdbl" xMin="240" yMin="0" xMax="485" yMax="580">
      <contour>
        <pt x="264" y="83" on="0"/>
        <pt x="298" y="83" on="0"/>
        <pt x="322" y="59" on="0"/>
        <pt x="322" y="24" on="0"/>
        <pt x="298" y="0" on="0"/>
        <pt x="264" y="0" on="0"/>
        <pt x="241" y="24" on="0"/>
        <pt x="241" y="59" on="0"/>
      </contour>
      <contour>
        <pt x="427" y="83" on="0"/>
        <pt x="461" y="83" on="0"/>
        <pt x="484" y="59" on="0"/>
        <pt x="484" y="24" on="0"/>
        <pt x="461" y="0" on="0"/>
        <pt x="427" y="0" on="0"/>
        <pt x="403" y="24" on="0"/>
        <pt x="403" y="59" on="0"/>
      </contour>
      <contour>
        <pt x="403" y="580" on="1"/>
        <pt x="484" y="580" on="1"/>
        <pt x="484" y="166" on="1"/>
        <pt x="403" y="166" on="1"/>
      </contour>
      <contour>
        <pt x="241" y="580" on="1"/>
        <pt x="322" y="580" on="1"/>
        <pt x="322" y="166" on="1"/>
        <pt x="241" y="166" on="1"/>
      </contour>
    </TTGlyph>
    <TTGlyph name="exclamdown" xMin="321" yMin="0" xMax="404" yMax="580">
      <component glyphName="exclam" x="0" y="580" scalex="1.0" scaley="-1.0" flags="0x1004"/>
    </TTGlyph>
    <TTGlyph name="f" xMin="58" yMin="0" xMax="667" yMax="580">
      <component glyphName="F" x="0" y="0" flags="0x1004"/>
    </TTGlyph>
    <TTGlyph name="filledbox" xMin="58" yMin="0" xMax="667" yMax="580">
      <contour>
        <pt x="58" y="580" on="1"/>
        <pt x="667" y="580" on="1"/>
        <pt x="667" y="0" on="1"/>
        <pt x="58" y="0" on="1"/>
      </contour>
    </TTGlyph>
    <TTGlyph name="four" xMin="58" yMin="0" xMax="667" yMax="580">
      <contour>
        <pt x="154" y="580" on="1"/>
        <pt x="560" y="580" on="1"/>
        <pt x="478" y="113" on="1"/>
        <pt x="545" y="113" on="1"/>
        <pt x="545" y="144" on="1"/>
        <pt x="667" y="144" on="1"/>
        <pt x="667" y="0" on="1"/>
        <pt x="545" y="0" on="1"/>
        <pt x="545" y="30" on="1"/>
        <pt x="58" y="30" on="1"/>
      </contour>
    </TTGlyph>
    <TTGlyph name="g" xMin="58" yMin="0" xMax="667" yMax="597">
      <component glyphName="G" x="0" y="0" flags="0x1004"/>
    </TTGlyph>
    <TTGlyph name="gcircumflex" xMin="58" yMin="0" xMax="667" yMax="720">
      <component glyphName="Gcircumflex" x="0" y="0" flags="0x1004"/>
    </TTGlyph>
    <TTGlyph name="gdotaccent" xMin="58" yMin="0" xMax="667" yMax="705">
      <component glyphName="Gdotaccent" x="0" y="0" flags="0x1004"/>
    </TTGlyph>
    <TTGlyph name="grave" xMin="301" yMin="583" xMax="424" yMax="720">
      <component glyphName="gravecomb" x="0" y="0" flags="0x1004"/>
    </TTGlyph>
    <TTGlyph name="gravecomb" xMin="301" yMin="583" xMax="424" yMax="720">
      <contour>
        <pt x="423" y="670" on="1"/>
        <pt x="423" y="584" on="1"/>
        <pt x="302" y="637" on="1"/>
        <pt x="302" y="720" on="1"/>
      </contour>
    </TTGlyph>
    <TTGlyph name="h" xMin="58" yMin="0" xMax="667" yMax="580">
      <component glyphName="H" x="0" y="0" flags="0x1004"/>
    </TTGlyph>
    <TTGlyph name="hyphen" xMin="159" yMin="165" xMax="566" yMax="249">
      <contour>
        <pt x="566" y="249" on="1"/>
        <pt x="566" y="166" on="1"/>
        <pt x="160" y="166" on="1"/>
        <pt x="160" y="249" on="1"/>
      </contour>
    </TTGlyph>
    <TTGlyph name="i" xMin="159" yMin="0" xMax="566" yMax="580">
      <component glyphName="I" x="0" y="0" flags="0x1004"/>
    </TTGlyph>
    <TTGlyph name="idieresis" xMin="159" yMin="0" xMax="566" yMax="705">
      <component glyphName="Idieresis" x="0" y="0" flags="0x1004"/>
    </TTGlyph>
    <TTGlyph name="ij" xMin="58" yMin="-17" xMax="668" yMax="581">
      <component glyphName="IJ" x="0" y="0" flags="0x1004"/>
    </TTGlyph>
    <TTGlyph name="imacron" xMin="159" yMin="0" xMax="566" yMax="705">
      <component glyphName="Imacron" x="0" y="0" flags="0x1004"/>
    </TTGlyph>
    <TTGlyph name="j" xMin="58" yMin="-17" xMax="668" yMax="580">
      <component glyphName="J" x="0" y="0" flags="0x1004"/>
    </TTGlyph>
    <TTGlyph name="k" xMin="58" yMin="0" xMax="667" yMax="580">
      <component glyphName="K" x="0" y="0" flags="0x1004"/>
    </TTGlyph>
    <TTGlyph name="kgreenlandic" xMin="58" yMin="0" xMax="667" yMax="580">
      <component glyphName="K" x="0" y="0" flags="0x1004"/>
    </TTGlyph>
    <TTGlyph name="l" xMin="58" yMin="0" xMax="667" yMax="580">
      <component glyphName="L" x="0" y="0" flags="0x1004"/>
    </TTGlyph>
    <TTGlyph name="lfblock" xMin="0" yMin="-140" xMax="363" yMax="720">
      <contour>
        <pt x="362" y="720" on="1"/>
        <pt x="362" y="-140" on="1"/>
        <pt x="0" y="-140" on="1"/>
        <pt x="0" y="720" on="1"/>
      </contour>
    </TTGlyph>
    <TTGlyph name="ltshade" xMin="0" yMin="-54" xMax="653" yMax="720">
      <contour>
        <pt x="0" y="720" on="1"/>
        <pt x="72" y="720" on="1"/>
        <pt x="72" y="634" on="1"/>
        <pt x="0" y="634" on="1"/>
      </contour>
      <contour>
        <pt x="145" y="720" on="1"/>
        <pt x="218" y="720" on="1"/>
        <pt x="218" y="634" on="1"/>
        <pt x="145" y="634" on="1"/>
      </contour>
      <contour>
        <pt x="290" y="720" on="1"/>
        <pt x="362" y="720" on="1"/>
        <pt x="362" y="634" on="1"/>
        <pt x="290" y="634" on="1"/>
      </contour>
      <contour>
        <pt x="435" y="720" on="1"/>
        <pt x="508" y="720" on="1"/>
        <pt x="508" y="634" on="1"/>
        <pt x="435" y="634" on="1"/>
      </contour>
      <contour>
        <pt x="580" y="720" on="1"/>
        <pt x="652" y="720" on="1"/>
        <pt x="652" y="634" on="1"/>
        <pt x="580" y="634" on="1"/>
      </contour>
      <contour>
        <pt x="0" y="548" on="1"/>
        <pt x="72" y="548" on="1"/>
        <pt x="72" y="462" on="1"/>
        <pt x="0" y="462" on="1"/>
      </contour>
      <contour>
        <pt x="145" y="548" on="1"/>
        <pt x="218" y="548" on="1"/>
        <pt x="218" y="462" on="1"/>
        <pt x="145" y="462" on="1"/>
      </contour>
      <contour>
        <pt x="290" y="548" on="1"/>
        <pt x="362" y="548" on="1"/>
        <pt x="362" y="462" on="1"/>
        <pt x="290" y="462" on="1"/>
      </contour>
      <contour>
        <pt x="435" y="548" on="1"/>
        <pt x="508" y="548" on="1"/>
        <pt x="508" y="462" on="1"/>
        <pt x="435" y="462" on="1"/>
      </contour>
      <contour>
        <pt x="580" y="548" on="1"/>
        <pt x="652" y="548" on="1"/>
        <pt x="652" y="462" on="1"/>
        <pt x="580" y="462" on="1"/>
      </contour>
      <contour>
        <pt x="0" y="376" on="1"/>
        <pt x="72" y="376" on="1"/>
        <pt x="72" y="290" on="1"/>
        <pt x="0" y="290" on="1"/>
      </contour>
      <contour>
        <pt x="145" y="376" on="1"/>
        <pt x="218" y="376" on="1"/>
        <pt x="218" y="290" on="1"/>
        <pt x="145" y="290" on="1"/>
      </contour>
      <contour>
        <pt x="290" y="376" on="1"/>
        <pt x="362" y="376" on="1"/>
        <pt x="362" y="290" on="1"/>
        <pt x="290" y="290" on="1"/>
      </contour>
      <contour>
        <pt x="435" y="376" on="1"/>
        <pt x="508" y="376" on="1"/>
        <pt x="508" y="290" on="1"/>
        <pt x="435" y="290" on="1"/>
      </contour>
      <contour>
        <pt x="580" y="376" on="1"/>
        <pt x="652" y="376" on="1"/>
        <pt x="652" y="290" on="1"/>
        <pt x="580" y="290" on="1"/>
      </contour>
      <contour>
        <pt x="0" y="204" on="1"/>
        <pt x="72" y="204" on="1"/>
        <pt x="72" y="118" on="1"/>
        <pt x="0" y="118" on="1"/>
      </contour>
      <contour>
        <pt x="145" y="204" on="1"/>
        <pt x="218" y="204" on="1"/>
        <pt x="218" y="118" on="1"/>
        <pt x="145" y="118" on="1"/>
      </contour>
      <contour>
        <pt x="290" y="204" on="1"/>
        <pt x="362" y="204" on="1"/>
        <pt x="362" y="118" on="1"/>
        <pt x="290" y="118" on="1"/>
      </contour>
      <contour>
        <pt x="435" y="204" on="1"/>
        <pt x="508" y="204" on="1"/>
        <pt x="508" y="118" on="1"/>
        <pt x="435" y="118" on="1"/>
      </contour>
      <contour>
        <pt x="580" y="204" on="1"/>
        <pt x="652" y="204" on="1"/>
        <pt x="652" y="118" on="1"/>
        <pt x="580" y="118" on="1"/>
      </contour>
      <contour>
        <pt x="0" y="32" on="1"/>
        <pt x="72" y="32" on="1"/>
        <pt x="72" y="-54" on="1"/>
        <pt x="0" y="-54" on="1"/>
      </contour>
      <contour>
        <pt x="145" y="32" on="1"/>
        <pt x="218" y="32" on="1"/>
        <pt x="218" y="-54" on="1"/>
        <pt x="145" y="-54" on="1"/>
      </contour>
      <contour>
        <pt x="290" y="32" on="1"/>
        <pt x="362" y="32" on="1"/>
        <pt x="362" y="-54" on="1"/>
        <pt x="290" y="-54" on="1"/>
      </contour>
      <contour>
        <pt x="435" y="32" on="1"/>
        <pt x="508" y="32" on="1"/>
        <pt x="508" y="-54" on="1"/>
        <pt x="435" y="-54" on="1"/>
      </contour>
      <contour>
        <pt x="580" y="32" on="1"/>
        <pt x="652" y="32" on="1"/>
        <pt x="652" y="-54" on="1"/>
        <pt x="580" y="-54" on="1"/>
      </contour>
    </TTGlyph>
    <TTGlyph name="m" xMin="58" yMin="0" xMax="667" yMax="580">
      <component glyphName="M" x="0" y="0" flags="0x1004"/>
    </TTGlyph>
    <TTGlyph name="macron" xMin="240" yMin="621" xMax="485" yMax="705">
      <component glyphName="uni0304" x="0" y="0" flags="0x1004"/>
    </TTGlyph>
    <TTGlyph name="n" xMin="58" yMin="0" xMax="667" yMax="580">
      <component glyphName="N" x="0" y="0" flags="0x1004"/>
    </TTGlyph>
    <TTGlyph name="o" xMin="57" yMin="-17" xMax="667" yMax="597">
      <component glyphName="O" x="0" y="0" flags="0x1004"/>
    </TTGlyph>
    <TTGlyph name="odieresis" xMin="57" yMin="-17" xMax="667" yMax="705">
      <component glyphName="Odieresis" x="0" y="0" flags="0x1004"/>
    </TTGlyph>
    <TTGlyph name="omacron" xMin="57" yMin="-17" xMax="667" yMax="705">
      <component glyphName="Omacron" x="0" y="0" flags="0x1004"/>
    </TTGlyph>
    <TTGlyph name="one" xMin="58" yMin="0" xMax="566" yMax="580">
      <contour>
        <pt x="444" y="580" on="1"/>
        <pt x="566" y="580" on="1"/>
        <pt x="566" y="0" on="1"/>
        <pt x="160" y="0" on="1"/>
        <pt x="160" y="380" on="1"/>
        <pt x="58" y="339" on="1"/>
        <pt x="58" y="422" on="1"/>
      </contour>
    </TTGlyph>
    <TTGlyph name="p" xMin="58" yMin="0" xMax="667" yMax="580">
      <component glyphName="P" x="0" y="0" flags="0x1004"/>
    </TTGlyph>
    <TTGlyph name="period" xMin="321" yMin="0" xMax="404" yMax="83">
      <contour>
        <pt x="346" y="83" on="0"/>
        <pt x="379" y="83" on="0"/>
        <pt x="403" y="59" on="0"/>
        <pt x="403" y="24" on="0"/>
        <pt x="379" y="0" on="0"/>
        <pt x="346" y="0" on="0"/>
        <pt x="322" y="24" on="0"/>
        <pt x="322" y="59" on="0"/>
      </contour>
    </TTGlyph>
    <TTGlyph name="plus" xMin="156" yMin="0" xMax="563" yMax="415">
      <contour>
        <pt x="322" y="414" on="1"/>
        <pt x="403" y="414" on="1"/>
        <pt x="403" y="249" on="1"/>
        <pt x="562" y="249" on="1"/>
        <pt x="562" y="166" on="1"/>
        <pt x="403" y="166" on="1"/>
        <pt x="403" y="0" on="1"/>
        <pt x="322" y="0" on="1"/>
        <pt x="322" y="166" on="1"/>
        <pt x="156" y="166" on="1"/>
        <pt x="156" y="249" on="1"/>
        <pt x="322" y="249" on="1"/>
      </contour>
    </TTGlyph>
    <TTGlyph name="q" xMin="58" yMin="0" xMax="667" yMax="597">
      <component glyphName="Q" x="0" y="0" flags="0x1004"/>
    </TTGlyph>
    <TTGlyph name="quotedbl" xMin="240" yMin="414" xMax="485" yMax="580">
      <contour>
        <pt x="484" y="580" on="1"/>
        <pt x="484" y="414" on="1"/>
        <pt x="403" y="414" on="1"/>
        <pt x="403" y="580" on="1"/>
      </contour>
      <contour>
        <pt x="322" y="580" on="1"/>
        <pt x="322" y="414" on="1"/>
        <pt x="241" y="414" on="1"/>
        <pt x="241" y="580" on="1"/>
      </contour>
    </TTGlyph>
    <TTGlyph name="quotesingle" xMin="321" yMin="414" xMax="404" yMax="580">
      <contour>
        <pt x="403" y="580" on="1"/>
        <pt x="403" y="414" on="1"/>
        <pt x="322" y="414" on="1"/>
        <pt x="322" y="580" on="1"/>
      </contour>
    </TTGlyph>
    <TTGlyph name="r" xMin="58" yMin="0" xMax="667" yMax="580">
      <component glyphName="R" x="0" y="0" flags="0x1004"/>
    </TTGlyph>
    <TTGlyph name="rtblock" xMin="0" yMin="-220" xMax="363" yMax="640">
      <component glyphName="lfblock" x="0" y="500" scalex="1.0" scaley="-1.0" flags="0x1004"/>
    </TTGlyph>
    <TTGlyph name="seven" xMin="58" yMin="0" xMax="667" yMax="580">
      <contour>
        <pt x="58" y="580" on="1"/>
        <pt x="667" y="580" on="1"/>
        <pt x="566" y="0" on="1"/>
        <pt x="160" y="0" on="1"/>
        <pt x="246" y="497" on="1"/>
        <pt x="58" y="497" on="1"/>
      </contour>
    </TTGlyph>
    <TTGlyph name="shade" xMin="0" yMin="-140" xMax="725" yMax="720">
      <contour>
        <pt x="0" y="720" on="1"/>
        <pt x="72" y="720" on="1"/>
        <pt x="72" y="634" on="1"/>
        <pt x="0" y="634" on="1"/>
      </contour>
      <contour>
        <pt x="72" y="634" on="1"/>
        <pt x="145" y="634" on="1"/>
        <pt x="145" y="548" on="1"/>
        <pt x="72" y="548" on="1"/>
      </contour>
      <contour>
        <pt x="145" y="634" on="1"/>
        <pt x="145" y="720" on="1"/>
        <pt x="218" y="720" on="1"/>
        <pt x="218" y="634" on="1"/>
      </contour>
      <contour>
        <pt x="218" y="634" on="1"/>
        <pt x="290" y="634" on="1"/>
        <pt x="290" y="548" on="1"/>
        <pt x="218" y="548" on="1"/>
      </contour>
      <contour>
        <pt x="290" y="634" on="1"/>
        <pt x="290" y="720" on="1"/>
        <pt x="362" y="720" on="1"/>
        <pt x="362" y="634" on="1"/>
      </contour>
      <contour>
        <pt x="362" y="634" on="1"/>
        <pt x="435" y="634" on="1"/>
        <pt x="435" y="548" on="1"/>
        <pt x="362" y="548" on="1"/>
      </contour>
      <contour>
        <pt x="435" y="634" on="1"/>
        <pt x="435" y="720" on="1"/>
        <pt x="508" y="720" on="1"/>
        <pt x="508" y="634" on="1"/>
      </contour>
      <contour>
        <pt x="508" y="634" on="1"/>
        <pt x="580" y="634" on="1"/>
        <pt x="580" y="548" on="1"/>
        <pt x="508" y="548" on="1"/>
      </contour>
      <contour>
        <pt x="580" y="634" on="1"/>
        <pt x="580" y="720" on="1"/>
        <pt x="652" y="720" on="1"/>
        <pt x="652" y="634" on="1"/>
      </contour>
      <contour>
        <pt x="652" y="634" on="1"/>
        <pt x="725" y="634" on="1"/>
        <pt x="725" y="548" on="1"/>
        <pt x="652" y="548" on="1"/>
      </contour>
      <contour>
        <pt x="652" y="548" on="1"/>
        <pt x="652" y="462" on="1"/>
        <pt x="580" y="462" on="1"/>
        <pt x="580" y="548" on="1"/>
      </contour>
      <contour>
        <pt x="652" y="462" on="1"/>
        <pt x="725" y="462" on="1"/>
        <pt x="725" y="376" on="1"/>
        <pt x="652" y="376" on="1"/>
      </contour>
      <contour>
        <pt x="652" y="376" on="1"/>
        <pt x="652" y="290" on="1"/>
        <pt x="580" y="290" on="1"/>
        <pt x="580" y="376" on="1"/>
      </contour>
      <contour>
        <pt x="652" y="290" on="1"/>
        <pt x="725" y="290" on="1"/>
        <pt x="725" y="204" on="1"/>
        <pt x="652" y="204" on="1"/>
      </contour>
      <contour>
        <pt x="652" y="204" on="1"/>
        <pt x="652" y="118" on="1"/>
        <pt x="580" y="118" on="1"/>
        <pt x="580" y="204" on="1"/>
      </contour>
      <contour>
        <pt x="652" y="118" on="1"/>
        <pt x="725" y="118" on="1"/>
        <pt x="725" y="32" on="1"/>
        <pt x="652" y="32" on="1"/>
      </contour>
      <contour>
        <pt x="652" y="32" on="1"/>
        <pt x="652" y="-54" on="1"/>
        <pt x="580" y="-54" on="1"/>
        <pt x="580" y="32" on="1"/>
      </contour>
      <contour>
        <pt x="652" y="-54" on="1"/>
        <pt x="725" y="-54" on="1"/>
        <pt x="725" y="-140" on="1"/>
        <pt x="652" y="-140" on="1"/>
      </contour>
      <contour>
        <pt x="580" y="-54" on="1"/>
        <pt x="580" y="-140" on="1"/>
        <pt x="508" y="-140" on="1"/>
        <pt x="508" y="-54" on="1"/>
      </contour>
      <contour>
        <pt x="508" y="-54" on="1"/>
        <pt x="435" y="-54" on="1"/>
        <pt x="435" y="32" on="1"/>
        <pt x="508" y="32" on="1"/>
      </contour>
      <contour>
        <pt x="435" y="-54" on="1"/>
        <pt x="435" y="-140" on="1"/>
        <pt x="362" y="-140" on="1"/>
        <pt x="362" y="-54" on="1"/>
      </contour>
      <contour>
        <pt x="362" y="-54" on="1"/>
        <pt x="290" y="-54" on="1"/>
        <pt x="290" y="32" on="1"/>
        <pt x="362" y="32" on="1"/>
      </contour>
      <contour>
        <pt x="290" y="-54" on="1"/>
        <pt x="290" y="-140" on="1"/>
        <pt x="218" y="-140" on="1"/>
        <pt x="218" y="-54" on="1"/>
      </contour>
      <contour>
        <pt x="218" y="-54" on="1"/>
        <pt x="145" y="-54" on="1"/>
        <pt x="145" y="32" on="1"/>
        <pt x="218" y="32" on="1"/>
      </contour>
      <contour>
        <pt x="145" y="-54" on="1"/>
        <pt x="145" y="-140" on="1"/>
        <pt x="72" y="-140" on="1"/>
        <pt x="72" y="-54" on="1"/>
      </contour>
      <contour>
        <pt x="72" y="-54" on="1"/>
        <pt x="0" y="-54" on="1"/>
        <pt x="0" y="32" on="1"/>
        <pt x="72" y="32" on="1"/>
      </contour>
      <contour>
        <pt x="72" y="32" on="1"/>
        <pt x="72" y="118" on="1"/>
        <pt x="145" y="118" on="1"/>
        <pt x="145" y="32" on="1"/>
      </contour>
      <contour>
        <pt x="72" y="118" on="1"/>
        <pt x="0" y="118" on="1"/>
        <pt x="0" y="204" on="1"/>
        <pt x="72" y="204" on="1"/>
      </contour>
      <contour>
        <pt x="72" y="204" on="1"/>
        <pt x="72" y="290" on="1"/>
        <pt x="145" y="290" on="1"/>
        <pt x="145" y="204" on="1"/>
      </contour>
      <contour>
        <pt x="72" y="290" on="1"/>
        <pt x="0" y="290" on="1"/>
        <pt x="0" y="376" on="1"/>
        <pt x="72" y="376" on="1"/>
      </contour>
      <contour>
        <pt x="72" y="376" on="1"/>
        <pt x="72" y="462" on="1"/>
        <pt x="145" y="462" on="1"/>
        <pt x="145" y="376" on="1"/>
      </contour>
      <contour>
        <pt x="72" y="462" on="1"/>
        <pt x="0" y="462" on="1"/>
        <pt x="0" y="548" on="1"/>
        <pt x="72" y="548" on="1"/>
      </contour>
      <contour>
        <pt x="145" y="462" on="1"/>
        <pt x="145" y="548" on="1"/>
        <pt x="218" y="548" on="1"/>
        <pt x="218" y="462" on="1"/>
      </contour>
      <contour>
        <pt x="218" y="462" on="1"/>
        <pt x="290" y="462" on="1"/>
        <pt x="290" y="376" on="1"/>
        <pt x="218" y="376" on="1"/>
      </contour>
      <contour>
        <pt x="290" y="462" on="1"/>
        <pt x="290" y="548" on="1"/>
        <pt x="362" y="548" on="1"/>
        <pt x="362" y="462" on="1"/>
      </contour>
      <contour>
        <pt x="362" y="462" on="1"/>
        <pt x="435" y="462" on="1"/>
        <pt x="435" y="376" on="1"/>
        <pt x="362" y="376" on="1"/>
      </contour>
      <contour>
        <pt x="435" y="462" on="1"/>
        <pt x="435" y="548" on="1"/>
        <pt x="508" y="548" on="1"/>
        <pt x="508" y="462" on="1"/>
      </contour>
      <contour>
        <pt x="508" y="462" on="1"/>
        <pt x="580" y="462" on="1"/>
        <pt x="580" y="376" on="1"/>
        <pt x="508" y="376" on="1"/>
      </contour>
      <contour>
        <pt x="508" y="376" on="1"/>
        <pt x="508" y="290" on="1"/>
        <pt x="435" y="290" on="1"/>
        <pt x="435" y="376" on="1"/>
      </contour>
      <contour>
        <pt x="508" y="290" on="1"/>
        <pt x="580" y="290" on="1"/>
        <pt x="580" y="204" on="1"/>
        <pt x="508" y="204" on="1"/>
      </contour>
      <contour>
        <pt x="508" y="204" on="1"/>
        <pt x="508" y="118" on="1"/>
        <pt x="435" y="118" on="1"/>
        <pt x="435" y="204" on="1"/>
      </contour>
      <contour>
        <pt x="508" y="118" on="1"/>
        <pt x="580" y="118" on="1"/>
        <pt x="580" y="32" on="1"/>
        <pt x="508" y="32" on="1"/>
      </contour>
      <contour>
        <pt x="435" y="118" on="1"/>
        <pt x="435" y="32" on="1"/>
        <pt x="362" y="32" on="1"/>
        <pt x="362" y="118" on="1"/>
      </contour>
      <contour>
        <pt x="362" y="118" on="1"/>
        <pt x="290" y="118" on="1"/>
        <pt x="290" y="204" on="1"/>
        <pt x="362" y="204" on="1"/>
      </contour>
      <contour>
        <pt x="290" y="118" on="1"/>
        <pt x="290" y="32" on="1"/>
        <pt x="218" y="32" on="1"/>
        <pt x="218" y="118" on="1"/>
      </contour>
      <contour>
        <pt x="218" y="118" on="1"/>
        <pt x="145" y="118" on="1"/>
        <pt x="145" y="204" on="1"/>
        <pt x="218" y="204" on="1"/>
      </contour>
      <contour>
        <pt x="218" y="204" on="1"/>
        <pt x="218" y="290" on="1"/>
        <pt x="290" y="290" on="1"/>
        <pt x="290" y="204" on="1"/>
      </contour>
      <contour>
        <pt x="218" y="290" on="1"/>
        <pt x="145" y="290" on="1"/>
        <pt x="145" y="376" on="1"/>
        <pt x="218" y="376" on="1"/>
      </contour>
      <contour>
        <pt x="290" y="290" on="1"/>
        <pt x="290" y="376" on="1"/>
        <pt x="362" y="376" on="1"/>
        <pt x="362" y="290" on="1"/>
      </contour>
      <contour>
        <pt x="362" y="290" on="1"/>
        <pt x="435" y="290" on="1"/>
        <pt x="435" y="204" on="1"/>
        <pt x="362" y="204" on="1"/>
      </contour>
    </TTGlyph>
    <TTGlyph name="t" xMin="58" yMin="0" xMax="667" yMax="580">
      <component glyphName="T" x="0" y="0" flags="0x1004"/>
    </TTGlyph>
    <TTGlyph name="twodotenleader" xMin="240" yMin="0" xMax="485" yMax="83">
      <contour>
        <pt x="427" y="83" on="0"/>
        <pt x="461" y="83" on="0"/>
        <pt x="484" y="59" on="0"/>
        <pt x="484" y="24" on="0"/>
        <pt x="461" y="0" on="0"/>
        <pt x="427" y="0" on="0"/>
        <pt x="403" y="24" on="0"/>
        <pt x="403" y="59" on="0"/>
      </contour>
      <contour>
        <pt x="264" y="83" on="0"/>
        <pt x="298" y="83" on="0"/>
        <pt x="322" y="59" on="0"/>
        <pt x="322" y="24" on="0"/>
        <pt x="298" y="0" on="0"/>
        <pt x="264" y="0" on="0"/>
        <pt x="241" y="24" on="0"/>
        <pt x="241" y="59" on="0"/>
      </contour>
    </TTGlyph>
    <TTGlyph name="u" xMin="58" yMin="-17" xMax="667" yMax="580">
      <component glyphName="U" x="0" y="0" flags="0x1004"/>
    </TTGlyph>
    <TTGlyph name="u1F4EF" xMin="58" yMin="68" xMax="667" yMax="415">
      <contour>
        <pt x="58" y="414" on="1"/>
        <pt x="190" y="414" on="1"/>
        <pt x="230" y="414" on="1"/>
        <pt x="231" y="356" on="0"/>
        <pt x="249" y="302" on="1"/>
        <pt x="263" y="331" on="0"/>
        <pt x="329" y="373" on="0"/>
        <pt x="361" y="373" on="1"/>
        <pt x="412" y="373" on="0"/>
        <pt x="485" y="300" on="0"/>
        <pt x="485" y="249" on="1"/>
        <pt x="485" y="220" on="0"/>
        <pt x="473" y="194" on="1"/>
        <pt x="519" y="224" on="0"/>
        <pt x="586" y="353" on="0"/>
        <pt x="586" y="414" on="1"/>
        <pt x="667" y="414" on="1"/>
        <pt x="667" y="321" on="0"/>
        <pt x="560" y="135" on="0"/>
        <pt x="484" y="98" on="1"/>
        <pt x="484" y="98" on="0"/>
        <pt x="485" y="98" on="1"/>
        <pt x="480" y="96" on="0"/>
        <pt x="475" y="93" on="1"/>
        <pt x="471" y="92" on="0"/>
        <pt x="467" y="90" on="1"/>
        <pt x="456" y="85" on="0"/>
        <pt x="445" y="82" on="1"/>
        <pt x="442" y="81" on="0"/>
        <pt x="439" y="80" on="1"/>
        <pt x="427" y="76" on="0"/>
        <pt x="415" y="74" on="1"/>
        <pt x="413" y="74" on="0"/>
        <pt x="411" y="73" on="1"/>
        <pt x="398" y="71" on="0"/>
        <pt x="384" y="70" on="1"/>
        <pt x="373" y="69" on="0"/>
        <pt x="362" y="68" on="1"/>
        <pt x="336" y="68" on="0"/>
        <pt x="311" y="73" on="1"/>
        <pt x="272" y="81" on="0"/>
        <pt x="178" y="135" on="0"/>
        <pt x="150" y="166" on="1"/>
        <pt x="139" y="178" on="0"/>
        <pt x="120" y="205" on="0"/>
        <pt x="103" y="233" on="0"/>
        <pt x="95" y="248" on="1"/>
        <pt x="80" y="281" on="0"/>
        <pt x="58" y="378" on="0"/>
      </contour>
      <contour>
        <pt x="385" y="307" on="0"/>
        <pt x="337" y="307" on="0"/>
        <pt x="303" y="273" on="0"/>
        <pt x="303" y="224" on="0"/>
        <pt x="337" y="190" on="0"/>
        <pt x="361" y="190" on="1"/>
        <pt x="361" y="190" on="1"/>
        <pt x="385" y="190" on="0"/>
        <pt x="420" y="224" on="0"/>
        <pt x="420" y="273" on="0"/>
      </contour>
    </TTGlyph>
    <TTGlyph name="udieresis" xMin="58" yMin="-17" xMax="667" yMax="705">
      <component glyphName="Udieresis" x="0" y="0" flags="0x1004"/>
    </TTGlyph>
    <TTGlyph name="umacron" xMin="58" yMin="-17" xMax="667" yMax="705">
      <component glyphName="Umacron" x="0" y="0" flags="0x1004"/>
    </TTGlyph>
    <TTGlyph name="underscore" xMin="0" yMin="-140" xMax="725" yMax="-57">
      <contour>
        <pt x="725" y="-57" on="1"/>
        <pt x="725" y="-140" on="1"/>
        <pt x="0" y="-140" on="1"/>
        <pt x="0" y="-57" on="1"/>
      </contour>
    </TTGlyph>
    <TTGlyph name="underscoredbl" xMin="0" yMin="-249" xMax="725" yMax="0">
      <contour>
        <pt x="725" y="0" on="1"/>
        <pt x="725" y="-83" on="1"/>
        <pt x="0" y="-83" on="1"/>
        <pt x="0" y="0" on="1"/>
      </contour>
      <contour>
        <pt x="725" y="-166" on="1"/>
        <pt x="725" y="-249" on="1"/>
        <pt x="0" y="-249" on="1"/>
        <pt x="0" y="-166" on="1"/>
      </contour>
    </TTGlyph>
    <TTGlyph name="uni0302" xMin="240" yMin="583" xMax="485" yMax="720">
      <contour>
        <pt x="362" y="720" on="1"/>
        <pt x="484" y="670" on="1"/>
        <pt x="484" y="584" on="1"/>
        <pt x="362" y="637" on="1"/>
        <pt x="241" y="584" on="1"/>
        <pt x="241" y="670" on="1"/>
      </contour>
    </TTGlyph>
    <TTGlyph name="uni0304" xMin="240" yMin="621" xMax="485" yMax="705">
      <contour>
        <pt x="241" y="704" on="1"/>
        <pt x="484" y="704" on="1"/>
        <pt x="484" y="621" on="1"/>
        <pt x="241" y="621" on="1"/>
      </contour>
    </TTGlyph>
    <TTGlyph name="uni0307" xMin="321" yMin="621" xMax="404" yMax="705">
      <contour>
        <pt x="362" y="704" on="1"/>
        <pt x="374" y="704" on="0"/>
        <pt x="392" y="693" on="0"/>
        <pt x="403" y="674" on="0"/>
        <pt x="403" y="652" on="0"/>
        <pt x="392" y="633" on="0"/>
        <pt x="374" y="621" on="0"/>
        <pt x="351" y="621" on="0"/>
        <pt x="333" y="633" on="0"/>
        <pt x="322" y="652" on="0"/>
        <pt x="322" y="663" on="1"/>
        <pt x="322" y="680" on="0"/>
        <pt x="346" y="704" on="0"/>
      </contour>
    </TTGlyph>
    <TTGlyph name="uni0308" xMin="240" yMin="621" xMax="485" yMax="705">
      <contour>
        <pt x="264" y="704" on="0"/>
        <pt x="298" y="704" on="0"/>
        <pt x="322" y="680" on="0"/>
        <pt x="322" y="646" on="0"/>
        <pt x="298" y="621" on="0"/>
        <pt x="281" y="621" on="1"/>
        <pt x="270" y="621" on="0"/>
        <pt x="252" y="633" on="0"/>
        <pt x="241" y="652" on="0"/>
        <pt x="241" y="663" on="1"/>
        <pt x="241" y="680" on="0"/>
      </contour>
      <contour>
        <pt x="427" y="704" on="0"/>
        <pt x="461" y="704" on="0"/>
        <pt x="484" y="680" on="0"/>
        <pt x="484" y="646" on="0"/>
        <pt x="461" y="621" on="0"/>
        <pt x="427" y="621" on="0"/>
        <pt x="403" y="646" on="0"/>
        <pt x="403" y="680" on="0"/>
      </contour>
    </TTGlyph>
    <TTGlyph name="uni030B" xMin="220" yMin="583" xMax="505" yMax="720">
      <contour>
        <pt x="220" y="670" on="1"/>
        <pt x="342" y="720" on="1"/>
        <pt x="342" y="637" on="1"/>
        <pt x="220" y="584" on="1"/>
      </contour>
      <contour>
        <pt x="383" y="670" on="1"/>
        <pt x="505" y="720" on="1"/>
        <pt x="505" y="637" on="1"/>
        <pt x="383" y="584" on="1"/>
      </contour>
    </TTGlyph>
    <TTGlyph name="uni030C" xMin="240" yMin="583" xMax="485" yMax="720">
      <contour>
        <pt x="362" y="584" on="1"/>
        <pt x="241" y="634" on="1"/>
        <pt x="241" y="720" on="1"/>
        <pt x="362" y="667" on="1"/>
        <pt x="484" y="720" on="1"/>
        <pt x="484" y="634" on="1"/>
      </contour>
    </TTGlyph>
    <TTGlyph name="uni030F" xMin="220" yMin="583" xMax="505" yMax="720">
      <component glyphName="uni030B" x="725" y="0" scalex="-1.0" scaley="1.0" flags="0x1004"/>
    </TTGlyph>
    <TTGlyph name="uni0316" xMin="301" yMin="-140" xMax="424" yMax="-3">
      <component glyphName="acutecomb" x="0" y="580" scalex="1.0" scaley="-1.0" flags="0x1004"/>
    </TTGlyph>
    <TTGlyph name="uni0317" xMin="301" yMin="-140" xMax="424" yMax="-3">
      <component glyphName="uni0316" x="725" y="0" scalex="-1.0" scaley="1.0" flags="0x1004"/>
    </TTGlyph>
    <TTGlyph name="uni0324" xMin="240" yMin="-125" xMax="485" yMax="-41">
      <component glyphName="uni0308" x="0" y="580" scalex="1.0" scaley="-1.0" flags="0x1004"/>
    </TTGlyph>
    <TTGlyph name="uni032C" xMin="240" yMin="-140" xMax="485" yMax="-3">
      <component glyphName="uni0302" x="0" y="580" scalex="1.0" scaley="-1.0" flags="0x1004"/>
    </TTGlyph>
    <TTGlyph name="uni032D" xMin="240" yMin="-140" xMax="485" yMax="-3">
      <component glyphName="uni030C" x="0" y="580" scalex="1.0" scaley="-1.0" flags="0x1004"/>
    </TTGlyph>
    <TTGlyph name="uni0331" xMin="240" yMin="-125" xMax="485" yMax="-41">
      <component glyphName="uni0304" x="0" y="580" scalex="1.0" scaley="-1.0" flags="0x1004"/>
    </TTGlyph>
    <TTGlyph name="uni16C9" xMin="58" yMin="0" xMax="667" yMax="580">
      <contour>
        <pt x="362" y="0" on="1"/>
        <pt x="139" y="166" on="1"/>
        <pt x="58" y="580" on="1"/>
        <pt x="667" y="580" on="1"/>
        <pt x="586" y="166" on="1"/>
      </contour>
      <contour>
        <pt x="362" y="104" on="1"/>
        <pt x="514" y="211" on="1"/>
        <pt x="570" y="497" on="1"/>
        <pt x="155" y="497" on="1"/>
        <pt x="211" y="211" on="1"/>
      </contour>
    </TTGlyph>
    <TTGlyph name="uni16CA" xMin="58" yMin="0" xMax="667" yMax="580">
      <contour>
        <pt x="362" y="0" on="1"/>
        <pt x="139" y="166" on="1"/>
        <pt x="58" y="580" on="1"/>
        <pt x="667" y="580" on="1"/>
        <pt x="586" y="166" on="1"/>
      </contour>
    </TTGlyph>
    <TTGlyph name="uni1E02" xMin="58" yMin="0" xMax="667" yMax="705">
      <component glyphName="uni0307" x="0" y="0" flags="0x1004"/>
      <component glyphName="B" x="0" y="0" flags="0x1004"/>
    </TTGlyph>
    <TTGlyph name="uni1E03" xMin="58" yMin="0" xMax="667" yMax="705">
      <component glyphName="uni1E02" x="0" y="0" flags="0x1004"/>
    </TTGlyph>
    <TTGlyph name="uni1E04" xMin="58" yMin="-125" xMax="667" yMax="580">
      <component glyphName="dotbelowcomb" x="0" y="0" flags="0x1004"/>
      <component glyphName="B" x="0" y="0" flags="0x1004"/>
    </TTGlyph>
    <TTGlyph name="uni1E05" xMin="58" yMin="-125" xMax="667" yMax="580">
      <component glyphName="uni1E04" x="0" y="0" flags="0x1004"/>
    </TTGlyph>
    <TTGlyph name="uni1E06" xMin="58" yMin="-125" xMax="667" yMax="580">
      <component glyphName="uni0331" x="0" y="0" flags="0x1004"/>
      <component glyphName="B" x="0" y="0" flags="0x1004"/>
    </TTGlyph>
    <TTGlyph name="uni1E07" xMin="58" yMin="-125" xMax="667" yMax="580">
      <component glyphName="uni1E06" x="0" y="0" flags="0x1004"/>
    </TTGlyph>
    <TTGlyph name="uni1E0A" xMin="58" yMin="0" xMax="667" yMax="705">
      <component glyphName="uni0307" x="0" y="0" flags="0x1004"/>
      <component glyphName="D" x="0" y="0" flags="0x1004"/>
    </TTGlyph>
    <TTGlyph name="uni1E0B" xMin="58" yMin="0" xMax="667" yMax="705">
      <component glyphName="uni1E0A" x="0" y="0" flags="0x1004"/>
    </TTGlyph>
    <TTGlyph name="uni1E0C" xMin="58" yMin="-125" xMax="667" yMax="580">
      <component glyphName="dotbelowcomb" x="0" y="0" flags="0x1004"/>
      <component glyphName="D" x="0" y="0" flags="0x1004"/>
    </TTGlyph>
    <TTGlyph name="uni1E0D" xMin="58" yMin="-125" xMax="667" yMax="580">
      <component glyphName="uni1E0C" x="0" y="0" flags="0x1004"/>
    </TTGlyph>
    <TTGlyph name="uni1E0E" xMin="58" yMin="-125" xMax="667" yMax="580">
      <component glyphName="uni0331" x="0" y="0" flags="0x1004"/>
      <component glyphName="D" x="0" y="0" flags="0x1004"/>
    </TTGlyph>
    <TTGlyph name="uni1E0F" xMin="58" yMin="-125" xMax="667" yMax="580">
      <component glyphName="uni1E0E" x="0" y="0" flags="0x1004"/>
    </TTGlyph>
    <TTGlyph name="uni1E1E" xMin="58" yMin="0" xMax="667" yMax="705">
      <component glyphName="uni0307" x="0" y="0" flags="0x1004"/>
      <component glyphName="F" x="0" y="0" flags="0x1004"/>
    </TTGlyph>
    <TTGlyph name="uni1E1F" xMin="58" yMin="0" xMax="667" yMax="705">
      <component glyphName="uni1E1E" x="0" y="0" flags="0x1004"/>
    </TTGlyph>
    <TTGlyph name="uni1E20" xMin="58" yMin="0" xMax="667" yMax="705">
      <component glyphName="uni0304" x="0" y="0" flags="0x1004"/>
      <component glyphName="G" x="0" y="0" flags="0x1004"/>
    </TTGlyph>
    <TTGlyph name="uni1E21" xMin="58" yMin="0" xMax="667" yMax="705">
      <component glyphName="uni1E20" x="0" y="0" flags="0x1004"/>
    </TTGlyph>
    <TTGlyph name="uni1E22" xMin="58" yMin="0" xMax="667" yMax="705">
      <component glyphName="uni0307" x="0" y="0" flags="0x1004"/>
      <component glyphName="H" x="0" y="0" flags="0x1004"/>
    </TTGlyph>
    <TTGlyph name="uni1E23" xMin="58" yMin="0" xMax="667" yMax="705">
      <component glyphName="uni1E22" x="0" y="0" flags="0x1004"/>
    </TTGlyph>
    <TTGlyph name="uni1E24" xMin="58" yMin="-125" xMax="667" yMax="580">
      <component glyphName="dotbelowcomb" x="0" y="0" flags="0x1004"/>
      <component glyphName="H" x="0" y="0" flags="0x1004"/>
    </TTGlyph>
    <TTGlyph name="uni1E25" xMin="58" yMin="-125" xMax="667" yMax="580">
      <component glyphName="uni1E24" x="0" y="0" flags="0x1004"/>
    </TTGlyph>
    <TTGlyph name="uni1E26" xMin="58" yMin="0" xMax="667" yMax="705">
      <component glyphName="uni0308" x="0" y="0" flags="0x1004"/>
      <component glyphName="H" x="0" y="0" flags="0x1004"/>
    </TTGlyph>
    <TTGlyph name="uni1E27" xMin="58" yMin="0" xMax="667" yMax="705">
      <component glyphName="uni1E26" x="0" y="0" flags="0x1004"/>
    </TTGlyph>
    <TTGlyph name="uni1E32" xMin="58" yMin="-125" xMax="667" yMax="580">
      <component glyphName="dotbelowcomb" x="0" y="0" flags="0x1004"/>
      <component glyphName="K" x="0" y="0" flags="0x1004"/>
    </TTGlyph>
    <TTGlyph name="uni1E33" xMin="58" yMin="-125" xMax="667" yMax="580">
      <component glyphName="uni1E32" x="0" y="0" flags="0x1004"/>
    </TTGlyph>
    <TTGlyph name="uni1E34" xMin="58" yMin="-125" xMax="667" yMax="580">
      <component glyphName="uni0331" x="0" y="0" flags="0x1004"/>
      <component glyphName="K" x="0" y="0" flags="0x1004"/>
    </TTGlyph>
    <TTGlyph name="uni1E35" xMin="58" yMin="-125" xMax="667" yMax="580">
      <component glyphName="uni1E34" x="0" y="0" flags="0x1004"/>
    </TTGlyph>
    <TTGlyph name="uni1E36" xMin="58" yMin="-125" xMax="667" yMax="580">
      <component glyphName="dotbelowcomb" x="0" y="0" flags="0x1004"/>
      <component glyphName="L" x="0" y="0" flags="0x1004"/>
    </TTGlyph>
    <TTGlyph name="uni1E37" xMin="58" yMin="-125" xMax="667" yMax="580">
      <component glyphName="uni1E36" x="0" y="0" flags="0x1004"/>
    </TTGlyph>
    <TTGlyph name="uni1E38" xMin="58" yMin="-125" xMax="667" yMax="705">
      <component glyphName="uni0304" x="0" y="0" flags="0x1004"/>
      <component glyphName="uni1E36" x="0" y="0" flags="0x1004"/>
    </TTGlyph>
    <TTGlyph name="uni1E39" xMin="58" yMin="-125" xMax="667" yMax="705">
      <component glyphName="uni1E38" x="0" y="0" flags="0x1004"/>
    </TTGlyph>
    <TTGlyph name="uni1E3A" xMin="58" yMin="-125" xMax="667" yMax="580">
      <component glyphName="uni0331" x="0" y="0" flags="0x1004"/>
      <component glyphName="L" x="0" y="0" flags="0x1004"/>
    </TTGlyph>
    <TTGlyph name="uni1E3B" xMin="58" yMin="-125" xMax="667" yMax="580">
      <component glyphName="uni1E3A" x="0" y="0" flags="0x1004"/>
    </TTGlyph>
    <TTGlyph name="uni1E40" xMin="58" yMin="0" xMax="667" yMax="705">
      <component glyphName="uni0307" x="0" y="0" flags="0x1004"/>
      <component glyphName="M" x="0" y="0" flags="0x1004"/>
    </TTGlyph>
    <TTGlyph name="uni1E41" xMin="58" yMin="0" xMax="667" yMax="705">
      <component glyphName="uni1E40" x="0" y="0" flags="0x1004"/>
    </TTGlyph>
    <TTGlyph name="uni1E42" xMin="58" yMin="-125" xMax="667" yMax="580">
      <component glyphName="dotbelowcomb" x="0" y="0" flags="0x1004"/>
      <component glyphName="M" x="0" y="0" flags="0x1004"/>
    </TTGlyph>
    <TTGlyph name="uni1E43" xMin="58" yMin="-125" xMax="667" yMax="580">
      <component glyphName="uni1E42" x="0" y="0" flags="0x1004"/>
    </TTGlyph>
    <TTGlyph name="uni1E44" xMin="58" yMin="0" xMax="667" yMax="705">
      <component glyphName="uni0307" x="0" y="0" flags="0x1004"/>
      <component glyphName="N" x="0" y="0" flags="0x1004"/>
    </TTGlyph>
    <TTGlyph name="uni1E45" xMin="58" yMin="0" xMax="667" yMax="705">
      <component glyphName="uni1E44" x="0" y="0" flags="0x1004"/>
    </TTGlyph>
    <TTGlyph name="uni1E46" xMin="58" yMin="-125" xMax="667" yMax="580">
      <component glyphName="dotbelowcomb" x="0" y="0" flags="0x1004"/>
      <component glyphName="N" x="0" y="0" flags="0x1004"/>
    </TTGlyph>
    <TTGlyph name="uni1E47" xMin="58" yMin="-125" xMax="667" yMax="580">
      <component glyphName="uni1E46" x="0" y="0" flags="0x1004"/>
    </TTGlyph>
    <TTGlyph name="uni1E48" xMin="58" yMin="-125" xMax="667" yMax="580">
      <component glyphName="uni0331" x="0" y="0" flags="0x1004"/>
      <component glyphName="N" x="0" y="0" flags="0x1004"/>
    </TTGlyph>
    <TTGlyph name="uni1E49" xMin="58" yMin="-125" xMax="667" yMax="580">
      <component glyphName="uni1E48" x="0" y="0" flags="0x1004"/>
    </TTGlyph>
    <TTGlyph name="uni1E56" xMin="58" yMin="0" xMax="667" yMax="705">
      <component glyphName="uni0307" x="0" y="0" flags="0x1004"/>
      <component glyphName="P" x="0" y="0" flags="0x1004"/>
    </TTGlyph>
    <TTGlyph name="uni1E57" xMin="58" yMin="0" xMax="667" yMax="705">
      <component glyphName="uni1E56" x="0" y="0" flags="0x1004"/>
    </TTGlyph>
    <TTGlyph name="uni1E58" xMin="58" yMin="0" xMax="667" yMax="705">
      <component glyphName="uni0307" x="0" y="0" flags="0x1004"/>
      <component glyphName="R" x="0" y="0" flags="0x1004"/>
    </TTGlyph>
    <TTGlyph name="uni1E59" xMin="58" yMin="-125" xMax="667" yMax="580">
      <component glyphName="uni1E48" x="0" y="0" flags="0x1004"/>
    </TTGlyph>
    <TTGlyph name="uni1E5A" xMin="58" yMin="-125" xMax="667" yMax="580">
      <component glyphName="dotbelowcomb" x="0" y="0" flags="0x1004"/>
      <component glyphName="R" x="0" y="0" flags="0x1004"/>
    </TTGlyph>
    <TTGlyph name="uni1E5B" xMin="58" yMin="-125" xMax="667" yMax="580">
      <component glyphName="uni1E5A" x="0" y="0" flags="0x1004"/>
    </TTGlyph>
    <TTGlyph name="uni1E5C" xMin="58" yMin="-125" xMax="667" yMax="705">
      <component glyphName="uni0304" x="0" y="0" flags="0x1004"/>
      <component glyphName="uni1E5A" x="0" y="0" flags="0x1004"/>
    </TTGlyph>
    <TTGlyph name="uni1E5D" xMin="58" yMin="-125" xMax="667" yMax="705">
      <component glyphName="uni1E5C" x="0" y="0" flags="0x1004"/>
    </TTGlyph>
    <TTGlyph name="uni1E5E" xMin="58" yMin="-125" xMax="667" yMax="580">
      <component glyphName="uni0331" x="0" y="0" flags="0x1004"/>
      <component glyphName="R" x="0" y="0" flags="0x1004"/>
    </TTGlyph>
    <TTGlyph name="uni1E5F" xMin="58" yMin="-125" xMax="667" yMax="580">
      <component glyphName="uni1E5E" x="0" y="0" flags="0x1004"/>
    </TTGlyph>
    <TTGlyph name="uni1E60" xMin="321" yMin="621" xMax="404" yMax="705">
      <component glyphName="uni0307" x="0" y="0" flags="0x1004"/>
    </TTGlyph>
    <TTGlyph name="uni1E61" xMin="321" yMin="621" xMax="404" yMax="705">
      <component glyphName="uni1E60" x="0" y="0" flags="0x1004"/>
    </TTGlyph>
    <TTGlyph name="uni1E62" xMin="321" yMin="-125" xMax="404" yMax="-41">
      <component glyphName="dotbelowcomb" x="0" y="0" flags="0x1004"/>
    </TTGlyph>
    <TTGlyph name="uni1E63" xMin="321" yMin="-125" xMax="404" yMax="-41">
      <component glyphName="uni1E62" x="0" y="0" flags="0x1004"/>
    </TTGlyph>
    <TTGlyph name="uni1E68" xMin="321" yMin="-125" xMax="404" yMax="705">
      <component glyphName="uni0307" x="0" y="0" flags="0x1004"/>
      <component glyphName="uni1E62" x="0" y="0" flags="0x1004"/>
    </TTGlyph>
    <TTGlyph name="uni1E69" xMin="321" yMin="-125" xMax="404" yMax="705">
      <component glyphName="uni1E68" x="0" y="0" flags="0x1004"/>
    </TTGlyph>
    <TTGlyph name="uni1E6A" xMin="58" yMin="0" xMax="667" yMax="705">
      <component glyphName="uni0307" x="0" y="0" flags="0x1004"/>
      <component glyphName="T" x="0" y="0" flags="0x1004"/>
    </TTGlyph>
    <TTGlyph name="uni1E6B" xMin="58" yMin="0" xMax="667" yMax="705">
      <component glyphName="uni1E6A" x="0" y="0" flags="0x1004"/>
    </TTGlyph>
    <TTGlyph name="uni1E6C" xMin="58" yMin="-125" xMax="667" yMax="580">
      <component glyphName="dotbelowcomb" x="0" y="0" flags="0x1004"/>
      <component glyphName="T" x="0" y="0" flags="0x1004"/>
    </TTGlyph>
    <TTGlyph name="uni1E6D" xMin="58" yMin="-125" xMax="667" yMax="580">
      <component glyphName="uni1E6C" x="0" y="0" flags="0x1004"/>
    </TTGlyph>
    <TTGlyph name="uni1E6E" xMin="58" yMin="-125" xMax="667" yMax="580">
      <component glyphName="uni0331" x="0" y="0" flags="0x1004"/>
      <component glyphName="T" x="0" y="0" flags="0x1004"/>
    </TTGlyph>
    <TTGlyph name="uni1E6F" xMin="58" yMin="-125" xMax="667" yMax="580">
      <component glyphName="uni1E6E" x="0" y="0" flags="0x1004"/>
    </TTGlyph>
    <TTGlyph name="uni1E72" xMin="58" yMin="-125" xMax="667" yMax="580">
      <component glyphName="uni0324" x="0" y="0" flags="0x1004"/>
      <component glyphName="U" x="0" y="0" flags="0x1004"/>
    </TTGlyph>
    <TTGlyph name="uni1E73" xMin="58" yMin="-125" xMax="667" yMax="580">
      <component glyphName="uni1E72" x="0" y="0" flags="0x1004"/>
    </TTGlyph>
    <TTGlyph name="uni1E7E" xMin="58" yMin="-125" xMax="667" yMax="580">
      <component glyphName="dotbelowcomb" x="0" y="0" flags="0x1004"/>
      <component glyphName="V" x="0" y="0" flags="0x1004"/>
    </TTGlyph>
    <TTGlyph name="uni1E7F" xMin="58" yMin="-125" xMax="667" yMax="580">
      <component glyphName="uni1E7E" x="0" y="0" flags="0x1004"/>
    </TTGlyph>
    <TTGlyph name="uni1E86" xMin="0" yMin="0" xMax="725" yMax="705">
      <component glyphName="uni0307" x="0" y="0" flags="0x1004"/>
      <component glyphName="W" x="0" y="0" flags="0x1004"/>
    </TTGlyph>
    <TTGlyph name="uni1E87" xMin="0" yMin="0" xMax="725" yMax="705">
      <component glyphName="uni1E86" x="0" y="0" flags="0x1004"/>
    </TTGlyph>
    <TTGlyph name="uni1E88" xMin="0" yMin="-125" xMax="725" yMax="580">
      <component glyphName="dotbelowcomb" x="0" y="0" flags="0x1004"/>
      <component glyphName="W" x="0" y="0" flags="0x1004"/>
    </TTGlyph>
    <TTGlyph name="uni1E89" xMin="0" yMin="-125" xMax="725" yMax="580">
      <component glyphName="uni1E88" x="0" y="0" flags="0x1004"/>
    </TTGlyph>
    <TTGlyph name="uni1E8A" xMin="58" yMin="0" xMax="667" yMax="705">
      <component glyphName="uni0307" x="0" y="0" flags="0x1004"/>
      <component glyphName="X" x="0" y="0" flags="0x1004"/>
    </TTGlyph>
    <TTGlyph name="uni1E8B" xMin="58" yMin="0" xMax="667" yMax="705">
      <component glyphName="uni1E8A" x="0" y="0" flags="0x1004"/>
    </TTGlyph>
    <TTGlyph name="uni1E8C" xMin="58" yMin="0" xMax="667" yMax="705">
      <component glyphName="uni0308" x="0" y="0" flags="0x1004"/>
      <component glyphName="X" x="0" y="0" flags="0x1004"/>
    </TTGlyph>
    <TTGlyph name="uni1E8D" xMin="58" yMin="0" xMax="667" yMax="705">
      <component glyphName="uni1E8C" x="0" y="0" flags="0x1004"/>
    </TTGlyph>
    <TTGlyph name="uni1E8E" xMin="58" yMin="0" xMax="667" yMax="705">
      <component glyphName="uni0307" x="0" y="0" flags="0x1004"/>
      <component glyphName="Y" x="0" y="0" flags="0x1004"/>
    </TTGlyph>
    <TTGlyph name="uni1E8F" xMin="58" yMin="0" xMax="667" yMax="705">
      <component glyphName="uni1E8E" x="0" y="0" flags="0x1004"/>
    </TTGlyph>
    <TTGlyph name="uni1E92" xMin="58" yMin="-125" xMax="667" yMax="580">
      <component glyphName="dotbelowcomb" x="0" y="0" flags="0x1004"/>
      <component glyphName="Z" x="0" y="0" flags="0x1004"/>
    </TTGlyph>
    <TTGlyph name="uni1E93" xMin="58" yMin="-125" xMax="667" yMax="580">
      <component glyphName="uni1E92" x="0" y="0" flags="0x1004"/>
    </TTGlyph>
    <TTGlyph name="uni1E94" xMin="58" yMin="-125" xMax="667" yMax="580">
      <component glyphName="uni0331" x="0" y="0" flags="0x1004"/>
      <component glyphName="Z" x="0" y="0" flags="0x1004"/>
    </TTGlyph>
    <TTGlyph name="uni1E95" xMin="58" yMin="-125" xMax="667" yMax="580">
      <component glyphName="uni1E94" x="0" y="0" flags="0x1004"/>
    </TTGlyph>
    <TTGlyph name="uni1E96" xMin="58" yMin="-125" xMax="667" yMax="580">
      <component glyphName="uni0331" x="0" y="0" flags="0x1004"/>
      <component glyphName="H" x="0" y="0" flags="0x1004"/>
    </TTGlyph>
    <TTGlyph name="uni1E97" xMin="58" yMin="0" xMax="667" yMax="705">
      <component glyphName="uni0308" x="0" y="0" flags="0x1004"/>
      <component glyphName="T" x="0" y="0" flags="0x1004"/>
    </TTGlyph>
    <TTGlyph name="uni1EA0" xMin="58" yMin="-125" xMax="667" yMax="580">
      <component glyphName="dotbelowcomb" x="0" y="0" flags="0x1004"/>
      <component glyphName="A" x="0" y="0" flags="0x1004"/>
    </TTGlyph>
    <TTGlyph name="uni1EA1" xMin="58" yMin="-125" xMax="667" yMax="580">
      <component glyphName="uni1EA0" x="0" y="0" flags="0x1004"/>
    </TTGlyph>
    <TTGlyph name="uni1EB8" xMin="58" yMin="-125" xMax="667" yMax="580">
      <component glyphName="dotbelowcomb" x="0" y="0" flags="0x1004"/>
      <component glyphName="E" x="0" y="0" flags="0x1004"/>
    </TTGlyph>
    <TTGlyph name="uni1EB9" xMin="58" yMin="-125" xMax="667" yMax="580">
      <component glyphName="uni1EB8" x="0" y="0" flags="0x1004"/>
    </TTGlyph>
    <TTGlyph name="uni1ECA" xMin="159" yMin="-125" xMax="566" yMax="580">
      <component glyphName="dotbelowcomb" x="0" y="0" flags="0x1004"/>
      <component glyphName="I" x="0" y="0" flags="0x1004"/>
    </TTGlyph>
    <TTGlyph name="uni1ECB" xMin="159" yMin="-125" xMax="566" yMax="580">
      <component glyphName="uni1ECA" x="0" y="0" flags="0x1004"/>
    </TTGlyph>
    <TTGlyph name="uni1ECC" xMin="57" yMin="-125" xMax="667" yMax="597">
      <component glyphName="dotbelowcomb" x="0" y="0" flags="0x1004"/>
      <component glyphName="O" x="0" y="0" flags="0x1004"/>
    </TTGlyph>
    <TTGlyph name="uni1ECD" xMin="57" yMin="-125" xMax="667" yMax="597">
      <component glyphName="uni1ECC" x="0" y="0" flags="0x1004"/>
    </TTGlyph>
    <TTGlyph name="uni1EE4" xMin="58" yMin="-125" xMax="667" yMax="580">
      <component glyphName="dotbelowcomb" x="0" y="0" flags="0x1004"/>
      <component glyphName="U" x="0" y="0" flags="0x1004"/>
    </TTGlyph>
    <TTGlyph name="uni1EE5" xMin="58" yMin="-125" xMax="667" yMax="580">
      <component glyphName="uni1EE4" x="0" y="0" flags="0x1004"/>
    </TTGlyph>
    <TTGlyph name="uni1EF4" xMin="58" yMin="-125" xMax="667" yMax="580">
      <component glyphName="dotbelowcomb" x="0" y="0" flags="0x1004"/>
      <component glyphName="Y" x="0" y="0" flags="0x1004"/>
    </TTGlyph>
    <TTGlyph name="uni1EF5" xMin="58" yMin="-125" xMax="667" yMax="580">
      <component glyphName="uni1EF4" x="0" y="0" flags="0x1004"/>
    </TTGlyph>
    <TTGlyph name="uni2016" xMin="240" yMin="-142" xMax="483" yMax="722">
      <contour>
        <pt x="241" y="722" on="1"/>
        <pt x="322" y="722" on="1"/>
        <pt x="322" y="-142" on="1"/>
        <pt x="241" y="-142" on="1"/>
      </contour>
      <contour>
        <pt x="401" y="720" on="1"/>
        <pt x="482" y="720" on="1"/>
        <pt x="482" y="-140" on="1"/>
        <pt x="401" y="-140" on="1"/>
      </contour>
    </TTGlyph>
    <TTGlyph name="uni203E" xMin="0" yMin="637" xMax="725" yMax="720">
      <contour>
        <pt x="725" y="720" on="1"/>
        <pt x="725" y="637" on="1"/>
        <pt x="0" y="637" on="1"/>
        <pt x="0" y="720" on="1"/>
      </contour>
    </TTGlyph>
    <TTGlyph name="uni2160" xMin="159" yMin="0" xMax="566" yMax="580">
      <component glyphName="I" x="0" y="0" flags="0x1004"/>
    </TTGlyph>
    <TTGlyph name="uni2164" xMin="58" yMin="0" xMax="667" yMax="580">
      <component glyphName="V" x="0" y="0" flags="0x1004"/>
    </TTGlyph>
    <TTGlyph name="uni2169" xMin="58" yMin="0" xMax="667" yMax="580">
      <component glyphName="X" x="0" y="0" flags="0x1004"/>
    </TTGlyph>
    <TTGlyph name="uni216C" xMin="58" yMin="0" xMax="667" yMax="580">
      <component glyphName="L" x="0" y="0" flags="0x1004"/>
    </TTGlyph>
    <TTGlyph name="uni216D" xMin="57" yMin="-17" xMax="667" yMax="597">
      <component glyphName="C" x="0" y="0" flags="0x1004"/>
    </TTGlyph>
    <TTGlyph name="uni216E" xMin="58" yMin="0" xMax="667" yMax="580">
      <component glyphName="D" x="0" y="0" flags="0x1004"/>
    </TTGlyph>
    <TTGlyph name="uni216F" xMin="58" yMin="0" xMax="667" yMax="580">
      <component glyphName="M" x="0" y="0" flags="0x1004"/>
    </TTGlyph>
    <TTGlyph name="uni2170" xMin="159" yMin="0" xMax="566" yMax="580">
      <component glyphName="uni2160" x="0" y="0" flags="0x1004"/>
    </TTGlyph>
    <TTGlyph name="uni2174" xMin="58" yMin="0" xMax="667" yMax="580">
      <component glyphName="uni2164" x="0" y="0" flags="0x1004"/>
    </TTGlyph>
    <TTGlyph name="uni2179" xMin="58" yMin="0" xMax="667" yMax="580">
      <component glyphName="uni2169" x="0" y="0" flags="0x1004"/>
    </TTGlyph>
    <TTGlyph name="uni217C" xMin="58" yMin="0" xMax="667" yMax="580">
      <component glyphName="uni216C" x="0" y="0" flags="0x1004"/>
    </TTGlyph>
    <TTGlyph name="uni217D" xMin="57" yMin="-17" xMax="667" yMax="597">
      <component glyphName="uni216D" x="0" y="0" flags="0x1004"/>
    </TTGlyph>
    <TTGlyph name="uni217E" xMin="58" yMin="0" xMax="667" yMax="580">
      <component glyphName="uni216E" x="0" y="0" flags="0x1004"/>
    </TTGlyph>
    <TTGlyph name="uni217F" xMin="58" yMin="0" xMax="667" yMax="580">
      <component glyphName="uni216F" x="0" y="0" flags="0x1004"/>
    </TTGlyph>
    <TTGlyph name="uni2183" xMin="58" yMin="-17" xMax="668" yMax="597">
      <component glyphName="uni216D" x="725" y="0" scalex="-1.0" scaley="1.0" flags="0x1004"/>
    </TTGlyph>
    <TTGlyph name="uni2184" xMin="58" yMin="-17" xMax="668" yMax="597">
      <component glyphName="uni2183" x="0" y="0" flags="0x1004"/>
    </TTGlyph>
    <TTGlyph name="uni2423" xMin="58" yMin="-140" xMax="667" yMax="83">
      <contour>
        <pt x="667" y="-57" on="1"/>
        <pt x="667" y="-140" on="1"/>
        <pt x="58" y="-140" on="1"/>
        <pt x="58" y="-57" on="1"/>
      </contour>
      <contour>
        <pt x="139" y="83" on="1"/>
        <pt x="139" y="-57" on="1"/>
        <pt x="58" y="-57" on="1"/>
        <pt x="58" y="83" on="1"/>
      </contour>
      <contour>
        <pt x="667" y="83" on="1"/>
        <pt x="667" y="-57" on="1"/>
        <pt x="586" y="-57" on="1"/>
        <pt x="586" y="83" on="1"/>
      </contour>
    </TTGlyph>
    <TTGlyph name="uni2581" xMin="0" yMin="-140" xMax="725" yMax="-32">
      <contour>
        <pt x="725" y="-32" on="1"/>
        <pt x="725" y="-140" on="1"/>
        <pt x="0" y="-140" on="1"/>
        <pt x="0" y="-32" on="1"/>
      </contour>
    </TTGlyph>
    <TTGlyph name="uni2582" xMin="0" yMin="-140" xMax="725" yMax="75">
      <contour>
        <pt x="725" y="75" on="1"/>
        <pt x="725" y="-140" on="1"/>
        <pt x="0" y="-140" on="1"/>
        <pt x="0" y="75" on="1"/>
      </contour>
    </TTGlyph>
    <TTGlyph name="uni2583" xMin="0" yMin="-140" xMax="725" yMax="183">
      <contour>
        <pt x="725" y="182" on="1"/>
        <pt x="725" y="-140" on="1"/>
        <pt x="0" y="-140" on="1"/>
        <pt x="0" y="182" on="1"/>
      </contour>
    </TTGlyph>
    <TTGlyph name="uni2585" xMin="0" yMin="-140" xMax="725" yMax="398">
      <contour>
        <pt x="725" y="398" on="1"/>
        <pt x="725" y="-140" on="1"/>
        <pt x="0" y="-140" on="1"/>
        <pt x="0" y="398" on="1"/>
      </contour>
    </TTGlyph>
    <TTGlyph name="uni2586" xMin="0" yMin="-140" xMax="725" yMax="505">
      <contour>
        <pt x="725" y="505" on="1"/>
        <pt x="725" y="-140" on="1"/>
        <pt x="0" y="-140" on="1"/>
        <pt x="0" y="505" on="1"/>
      </contour>
    </TTGlyph>
    <TTGlyph name="uni2587" xMin="0" yMin="-140" xMax="725" yMax="613">
      <contour>
        <pt x="725" y="612" on="1"/>
        <pt x="725" y="-140" on="1"/>
        <pt x="0" y="-140" on="1"/>
        <pt x="0" y="612" on="1"/>
      </contour>
    </TTGlyph>
    <TTGlyph name="uni2589" xMin="0" yMin="-140" xMax="635" yMax="720">
      <contour>
        <pt x="634" y="720" on="1"/>
        <pt x="634" y="-140" on="1"/>
        <pt x="0" y="-140" on="1"/>
        <pt x="0" y="720" on="1"/>
      </contour>
    </TTGlyph>
    <TTGlyph name="uni258A" xMin="0" yMin="-140" xMax="544" yMax="720">
      <contour>
        <pt x="544" y="720" on="1"/>
        <pt x="544" y="-140" on="1"/>
        <pt x="0" y="-140" on="1"/>
        <pt x="0" y="720" on="1"/>
      </contour>
    </TTGlyph>
    <TTGlyph name="uni258B" xMin="0" yMin="-140" xMax="454" yMax="720">
      <contour>
        <pt x="453" y="720" on="1"/>
        <pt x="453" y="-140" on="1"/>
        <pt x="0" y="-140" on="1"/>
        <pt x="0" y="720" on="1"/>
      </contour>
    </TTGlyph>
    <TTGlyph name="uni258D" xMin="0" yMin="-140" xMax="242" yMax="720">
      <contour>
        <pt x="242" y="720" on="1"/>
        <pt x="242" y="-140" on="1"/>
        <pt x="0" y="-140" on="1"/>
        <pt x="0" y="720" on="1"/>
      </contour>
    </TTGlyph>
    <TTGlyph name="uni258E" xMin="0" yMin="-140" xMax="182" yMax="720">
      <contour>
        <pt x="181" y="720" on="1"/>
        <pt x="181" y="-140" on="1"/>
        <pt x="0" y="-140" on="1"/>
        <pt x="0" y="720" on="1"/>
      </contour>
    </TTGlyph>
    <TTGlyph name="uni258F" xMin="0" yMin="-140" xMax="91" yMax="720">
      <contour>
        <pt x="91" y="720" on="1"/>
        <pt x="91" y="-140" on="1"/>
        <pt x="0" y="-140" on="1"/>
        <pt x="0" y="720" on="1"/>
      </contour>
    </TTGlyph>
    <TTGlyph name="uni2594" xMin="0" yMin="532" xMax="725" yMax="640">
      <component glyphName="uni2581" x="0" y="500" scalex="1.0" scaley="-1.0" flags="0x1004"/>
    </TTGlyph>
    <TTGlyph name="uni2595" xMin="0" yMin="-220" xMax="91" yMax="640">
      <component glyphName="uni258F" x="0" y="500" scalex="1.0" scaley="-1.0" flags="0x1004"/>
    </TTGlyph>
    <TTGlyph name="uni2596" xMin="58" yMin="0" xMax="363" yMax="290">
      <contour>
        <pt x="362" y="290" on="1"/>
        <pt x="362" y="0" on="1"/>
        <pt x="58" y="0" on="1"/>
        <pt x="58" y="290" on="1"/>
      </contour>
    </TTGlyph>
    <TTGlyph name="uni259A" xMin="58" yMin="0" xMax="667" yMax="580">
      <contour>
        <pt x="667" y="290" on="1"/>
        <pt x="667" y="0" on="1"/>
        <pt x="362" y="0" on="1"/>
        <pt x="362" y="290" on="1"/>
      </contour>
      <contour>
        <pt x="362" y="580" on="1"/>
        <pt x="362" y="290" on="1"/>
        <pt x="58" y="290" on="1"/>
        <pt x="58" y="580" on="1"/>
      </contour>
    </TTGlyph>
    <TTGlyph name="uni259B" xMin="58" yMin="0" xMax="667" yMax="580">
      <contour>
        <pt x="58" y="580" on="1"/>
        <pt x="667" y="580" on="1"/>
        <pt x="667" y="290" on="1"/>
        <pt x="362" y="290" on="1"/>
        <pt x="362" y="0" on="1"/>
        <pt x="58" y="0" on="1"/>
      </contour>
    </TTGlyph>
    <TTGlyph name="uni259C" xMin="58" yMin="0" xMax="667" yMax="580">
      <contour>
        <pt x="58" y="580" on="1"/>
        <pt x="667" y="580" on="1"/>
        <pt x="667" y="0" on="1"/>
        <pt x="362" y="0" on="1"/>
        <pt x="362" y="290" on="1"/>
        <pt x="58" y="290" on="1"/>
      </contour>
    </TTGlyph>
    <TTGlyph name="uni259D" xMin="362" yMin="290" xMax="667" yMax="580">
      <contour>
        <pt x="667" y="580" on="1"/>
        <pt x="667" y="290" on="1"/>
        <pt x="362" y="290" on="1"/>
        <pt x="362" y="580" on="1"/>
      </contour>
    </TTGlyph>
    <TTGlyph name="uni259E" xMin="58" yMin="0" xMax="667" yMax="580">
      <contour>
        <pt x="362" y="290" on="1"/>
        <pt x="362" y="0" on="1"/>
        <pt x="58" y="0" on="1"/>
        <pt x="58" y="290" on="1"/>
      </contour>
      <contour>
        <pt x="667" y="580" on="1"/>
        <pt x="667" y="290" on="1"/>
        <pt x="362" y="290" on="1"/>
        <pt x="362" y="580" on="1"/>
      </contour>
    </TTGlyph>
    <TTGlyph name="uni259F" xMin="58" yMin="0" xMax="667" yMax="580">
      <contour>
        <pt x="362" y="580" on="1"/>
        <pt x="667" y="580" on="1"/>
        <pt x="667" y="0" on="1"/>
        <pt x="58" y="0" on="1"/>
        <pt x="58" y="290" on="1"/>
        <pt x="362" y="290" on="1"/>
      </contour>
    </TTGlyph>
    <TTGlyph name="uni2610" xMin="58" yMin="0" xMax="667" yMax="580">
      <contour>
        <pt x="58" y="580" on="1"/>
        <pt x="667" y="580" on="1"/>
        <pt x="667" y="0" on="1"/>
        <pt x="58" y="0" on="1"/>
      </contour>
      <contour>
        <pt x="139" y="497" on="1"/>
        <pt x="139" y="83" on="1"/>
        <pt x="586" y="83" on="1"/>
        <pt x="586" y="497" on="1"/>
      </contour>
    </TTGlyph>
    <TTGlyph name="uni2616" xMin="58" yMin="0" xMax="667" yMax="580">
      <contour>
        <pt x="362" y="580" on="1"/>
        <pt x="586" y="414" on="1"/>
        <pt x="667" y="0" on="1"/>
        <pt x="58" y="0" on="1"/>
        <pt x="139" y="414" on="1"/>
      </contour>
      <contour>
        <pt x="362" y="476" on="1"/>
        <pt x="211" y="369" on="1"/>
        <pt x="155" y="83" on="1"/>
        <pt x="570" y="83" on="1"/>
        <pt x="514" y="369" on="1"/>
      </contour>
    </TTGlyph>
    <TTGlyph name="uni2617" xMin="58" yMin="0" xMax="667" yMax="580">
      <contour>
        <pt x="362" y="580" on="1"/>
        <pt x="586" y="414" on="1"/>
        <pt x="667" y="0" on="1"/>
        <pt x="58" y="0" on="1"/>
        <pt x="139" y="414" on="1"/>
      </contour>
    </TTGlyph>
    <TTGlyph name="uni2630" xMin="58" yMin="41" xMax="667" yMax="539">
      <contour>
        <pt x="667" y="331" on="1"/>
        <pt x="667" y="249" on="1"/>
        <pt x="58" y="249" on="1"/>
        <pt x="58" y="331" on="1"/>
      </contour>
      <contour>
        <pt x="667" y="539" on="1"/>
        <pt x="667" y="456" on="1"/>
        <pt x="58" y="456" on="1"/>
        <pt x="58" y="539" on="1"/>
      </contour>
      <contour>
        <pt x="667" y="124" on="1"/>
        <pt x="667" y="41" on="1"/>
        <pt x="58" y="41" on="1"/>
        <pt x="58" y="124" on="1"/>
      </contour>
    </TTGlyph>
    <TTGlyph name="uni2631" xMin="58" yMin="41" xMax="667" yMax="539">
      <contour>
        <pt x="667" y="331" on="1"/>
        <pt x="667" y="249" on="1"/>
        <pt x="58" y="249" on="1"/>
        <pt x="58" y="331" on="1"/>
      </contour>
      <contour>
        <pt x="302" y="539" on="1"/>
        <pt x="302" y="456" on="1"/>
        <pt x="58" y="456" on="1"/>
        <pt x="58" y="539" on="1"/>
      </contour>
      <contour>
        <pt x="667" y="539" on="1"/>
        <pt x="667" y="456" on="1"/>
        <pt x="423" y="456" on="1"/>
        <pt x="423" y="539" on="1"/>
      </contour>
      <contour>
        <pt x="667" y="124" on="1"/>
        <pt x="667" y="41" on="1"/>
        <pt x="58" y="41" on="1"/>
        <pt x="58" y="124" on="1"/>
      </contour>
    </TTGlyph>
    <TTGlyph name="uni2632" xMin="58" yMin="41" xMax="667" yMax="539">
      <contour>
        <pt x="302" y="331" on="1"/>
        <pt x="302" y="249" on="1"/>
        <pt x="58" y="249" on="1"/>
        <pt x="58" y="331" on="1"/>
      </contour>
      <contour>
        <pt x="667" y="331" on="1"/>
        <pt x="667" y="249" on="1"/>
        <pt x="423" y="249" on="1"/>
        <pt x="423" y="331" on="1"/>
      </contour>
      <contour>
        <pt x="667" y="124" on="1"/>
        <pt x="667" y="41" on="1"/>
        <pt x="58" y="41" on="1"/>
        <pt x="58" y="124" on="1"/>
      </contour>
      <contour>
        <pt x="667" y="539" on="1"/>
        <pt x="667" y="456" on="1"/>
        <pt x="58" y="456" on="1"/>
        <pt x="58" y="539" on="1"/>
      </contour>
    </TTGlyph>
    <TTGlyph name="uni2633" xMin="58" yMin="41" xMax="667" yMax="539">
      <contour>
        <pt x="302" y="331" on="1"/>
        <pt x="302" y="249" on="1"/>
        <pt x="58" y="249" on="1"/>
        <pt x="58" y="331" on="1"/>
      </contour>
      <contour>
        <pt x="667" y="331" on="1"/>
        <pt x="667" y="249" on="1"/>
        <pt x="423" y="249" on="1"/>
        <pt x="423" y="331" on="1"/>
      </contour>
      <contour>
        <pt x="667" y="124" on="1"/>
        <pt x="667" y="41" on="1"/>
        <pt x="58" y="41" on="1"/>
        <pt x="58" y="124" on="1"/>
      </contour>
      <contour>
        <pt x="302" y="539" on="1"/>
        <pt x="302" y="456" on="1"/>
        <pt x="58" y="456" on="1"/>
        <pt x="58" y="539" on="1"/>
      </contour>
      <contour>
        <pt x="667" y="539" on="1"/>
        <pt x="667" y="456" on="1"/>
        <pt x="423" y="456" on="1"/>
        <pt x="423" y="539" on="1"/>
      </contour>
    </TTGlyph>
    <TTGlyph name="uni2634" xMin="58" yMin="41" xMax="667" yMax="539">
      <component glyphName="uni2631" x="0" y="580" scalex="1.0" scaley="-1.0" flags="0x1004"/>
    </TTGlyph>
    <TTGlyph name="uni2635" xMin="58" yMin="41" xMax="667" yMax="539">
      <contour>
        <pt x="667" y="331" on="1"/>
        <pt x="667" y="249" on="1"/>
        <pt x="58" y="249" on="1"/>
        <pt x="58" y="331" on="1"/>
      </contour>
      <contour>
        <pt x="302" y="539" on="1"/>
        <pt x="302" y="456" on="1"/>
        <pt x="58" y="456" on="1"/>
        <pt x="58" y="539" on="1"/>
      </contour>
      <contour>
        <pt x="667" y="539" on="1"/>
        <pt x="667" y="456" on="1"/>
        <pt x="423" y="456" on="1"/>
        <pt x="423" y="539" on="1"/>
      </contour>
      <contour>
        <pt x="302" y="124" on="1"/>
        <pt x="302" y="41" on="1"/>
        <pt x="58" y="41" on="1"/>
        <pt x="58" y="124" on="1"/>
      </contour>
      <contour>
        <pt x="667" y="124" on="1"/>
        <pt x="667" y="41" on="1"/>
        <pt x="423" y="41" on="1"/>
        <pt x="423" y="124" on="1"/>
      </contour>
    </TTGlyph>
    <TTGlyph name="uni2636" xMin="58" yMin="41" xMax="667" yMax="539">
      <component glyphName="uni2633" x="0" y="580" scalex="1.0" scaley="-1.0" flags="0x1004"/>
    </TTGlyph>
    <TTGlyph name="uni2637" xMin="58" yMin="41" xMax="667" yMax="539">
      <contour>
        <pt x="302" y="331" on="1"/>
        <pt x="302" y="249" on="1"/>
        <pt x="58" y="249" on="1"/>
        <pt x="58" y="331" on="1"/>
      </contour>
      <contour>
        <pt x="667" y="331" on="1"/>
        <pt x="667" y="249" on="1"/>
        <pt x="423" y="249" on="1"/>
        <pt x="423" y="331" on="1"/>
      </contour>
      <contour>
        <pt x="302" y="539" on="1"/>
        <pt x="302" y="456" on="1"/>
        <pt x="58" y="456" on="1"/>
        <pt x="58" y="539" on="1"/>
      </contour>
      <contour>
        <pt x="667" y="539" on="1"/>
        <pt x="667" y="456" on="1"/>
        <pt x="423" y="456" on="1"/>
        <pt x="423" y="539" on="1"/>
      </contour>
      <contour>
        <pt x="302" y="124" on="1"/>
        <pt x="302" y="41" on="1"/>
        <pt x="58" y="41" on="1"/>
        <pt x="58" y="124" on="1"/>
      </contour>
      <contour>
        <pt x="667" y="124" on="1"/>
        <pt x="667" y="41" on="1"/>
        <pt x="423" y="41" on="1"/>
        <pt x="423" y="124" on="1"/>
      </contour>
    </TTGlyph>
    <TTGlyph name="uni268C" xMin="58" yMin="103" xMax="667" yMax="477">
      <contour>
        <pt x="667" y="352" on="1"/>
        <pt x="58" y="352" on="1"/>
        <pt x="58" y="476" on="1"/>
        <pt x="667" y="476" on="1"/>
      </contour>
      <contour>
        <pt x="667" y="104" on="1"/>
        <pt x="58" y="104" on="1"/>
        <pt x="58" y="228" on="1"/>
        <pt x="667" y="228" on="1"/>
      </contour>
    </TTGlyph>
    <TTGlyph name="uni268D" xMin="58" yMin="103" xMax="667" yMax="477">
      <contour>
        <pt x="302" y="476" on="1"/>
        <pt x="302" y="352" on="1"/>
        <pt x="58" y="352" on="1"/>
        <pt x="58" y="476" on="1"/>
      </contour>
      <contour>
        <pt x="667" y="476" on="1"/>
        <pt x="667" y="352" on="1"/>
        <pt x="423" y="352" on="1"/>
        <pt x="423" y="476" on="1"/>
      </contour>
      <contour>
        <pt x="667" y="228" on="1"/>
        <pt x="667" y="104" on="1"/>
        <pt x="58" y="104" on="1"/>
        <pt x="58" y="228" on="1"/>
      </contour>
    </TTGlyph>
    <TTGlyph name="uni268E" xMin="58" yMin="103" xMax="667" yMax="477">
      <component glyphName="uni268D" x="0" y="580" scalex="1.0" scaley="-1.0" flags="0x1004"/>
    </TTGlyph>
    <TTGlyph name="uni268F" xMin="58" yMin="103" xMax="667" yMax="477">
      <contour>
        <pt x="302" y="104" on="1"/>
        <pt x="58" y="104" on="1"/>
        <pt x="58" y="228" on="1"/>
        <pt x="302" y="228" on="1"/>
      </contour>
      <contour>
        <pt x="667" y="104" on="1"/>
        <pt x="423" y="104" on="1"/>
        <pt x="423" y="228" on="1"/>
        <pt x="667" y="228" on="1"/>
      </contour>
      <contour>
        <pt x="302" y="352" on="1"/>
        <pt x="58" y="352" on="1"/>
        <pt x="58" y="476" on="1"/>
        <pt x="302" y="476" on="1"/>
      </contour>
      <contour>
        <pt x="667" y="352" on="1"/>
        <pt x="423" y="352" on="1"/>
        <pt x="423" y="476" on="1"/>
        <pt x="667" y="476" on="1"/>
      </contour>
    </TTGlyph>
    <TTGlyph name="uni2690" xMin="58" yMin="0" xMax="667" yMax="580">
      <contour>
        <pt x="58" y="580" on="1"/>
        <pt x="667" y="580" on="1"/>
        <pt x="667" y="166" on="1"/>
        <pt x="139" y="166" on="1"/>
        <pt x="139" y="0" on="1"/>
        <pt x="58" y="0" on="1"/>
      </contour>
      <contour>
        <pt x="139" y="497" on="1"/>
        <pt x="139" y="249" on="1"/>
        <pt x="586" y="249" on="1"/>
        <pt x="586" y="497" on="1"/>
      </contour>
    </TTGlyph>
    <TTGlyph name="uni2691" xMin="58" yMin="0" xMax="667" yMax="580">
      <contour>
        <pt x="58" y="580" on="1"/>
        <pt x="667" y="580" on="1"/>
        <pt x="667" y="166" on="1"/>
        <pt x="139" y="166" on="1"/>
        <pt x="139" y="0" on="1"/>
        <pt x="58" y="0" on="1"/>
      </contour>
    </TTGlyph>
    <TTGlyph name="uni26EB" xMin="58" yMin="0" xMax="667" yMax="580">
      <contour>
        <pt x="220" y="580" on="1"/>
        <pt x="505" y="580" on="1"/>
        <pt x="505" y="414" on="1"/>
        <pt x="667" y="414" on="1"/>
        <pt x="667" y="0" on="1"/>
        <pt x="586" y="0" on="1"/>
        <pt x="586" y="331" on="1"/>
        <pt x="423" y="331" on="1"/>
        <pt x="423" y="497" on="1"/>
        <pt x="302" y="497" on="1"/>
        <pt x="302" y="331" on="1"/>
        <pt x="139" y="331" on="1"/>
        <pt x="139" y="0" on="1"/>
        <pt x="58" y="0" on="1"/>
        <pt x="58" y="414" on="1"/>
        <pt x="220" y="414" on="1"/>
      </contour>
    </TTGlyph>
    <TTGlyph name="uni26F0" xMin="58" yMin="0" xMax="667" yMax="580">
      <contour>
        <pt x="423" y="580" on="1"/>
        <pt x="667" y="0" on="1"/>
        <pt x="58" y="0" on="1"/>
        <pt x="220" y="414" on="1"/>
        <pt x="302" y="338" on="1"/>
      </contour>
    </TTGlyph>
    <TTGlyph name="uni26F6" xMin="58" yMin="0" xMax="667" yMax="580">
      <contour>
        <pt x="586" y="192" on="1"/>
        <pt x="667" y="192" on="1"/>
        <pt x="667" y="83" on="1"/>
        <pt x="667" y="41" on="1"/>
        <pt x="667" y="24" on="0"/>
        <pt x="643" y="0" on="0"/>
        <pt x="626" y="0" on="1"/>
        <pt x="464" y="0" on="1"/>
        <pt x="464" y="83" on="1"/>
        <pt x="586" y="83" on="1"/>
      </contour>
      <contour>
        <pt x="464" y="580" on="1"/>
        <pt x="626" y="580" on="1"/>
        <pt x="637" y="580" on="0"/>
        <pt x="656" y="569" on="0"/>
        <pt x="667" y="550" on="0"/>
        <pt x="667" y="539" on="1"/>
        <pt x="667" y="497" on="1"/>
        <pt x="667" y="388" on="1"/>
        <pt x="586" y="388" on="1"/>
        <pt x="586" y="497" on="1"/>
        <pt x="464" y="497" on="1"/>
      </contour>
      <contour>
        <pt x="99" y="580" on="1"/>
        <pt x="261" y="580" on="1"/>
        <pt x="261" y="497" on="1"/>
        <pt x="139" y="497" on="1"/>
        <pt x="139" y="388" on="1"/>
        <pt x="58" y="388" on="1"/>
        <pt x="58" y="497" on="1"/>
        <pt x="58" y="539" on="1"/>
        <pt x="58" y="556" on="0"/>
        <pt x="82" y="580" on="0"/>
      </contour>
      <contour>
        <pt x="58" y="192" on="1"/>
        <pt x="139" y="192" on="1"/>
        <pt x="139" y="83" on="1"/>
        <pt x="261" y="83" on="1"/>
        <pt x="261" y="0" on="1"/>
        <pt x="99" y="0" on="1"/>
        <pt x="82" y="0" on="0"/>
        <pt x="58" y="24" on="0"/>
        <pt x="58" y="41" on="1"/>
        <pt x="58" y="83" on="1"/>
      </contour>
    </TTGlyph>
    <TTGlyph name="uni26FF" xMin="58" yMin="0" xMax="667" yMax="580">
      <contour>
        <pt x="58" y="580" on="1"/>
        <pt x="667" y="580" on="1"/>
        <pt x="667" y="166" on="1"/>
        <pt x="139" y="166" on="1"/>
        <pt x="139" y="0" on="1"/>
        <pt x="58" y="0" on="1"/>
      </contour>
      <contour>
        <pt x="139" y="497" on="1"/>
        <pt x="139" y="414" on="1"/>
        <pt x="586" y="414" on="1"/>
        <pt x="586" y="497" on="1"/>
      </contour>
      <contour>
        <pt x="139" y="331" on="1"/>
        <pt x="139" y="249" on="1"/>
        <pt x="586" y="249" on="1"/>
        <pt x="586" y="331" on="1"/>
      </contour>
    </TTGlyph>
    <TTGlyph name="uni2719" xMin="58" yMin="0" xMax="667" yMax="580">
      <contour>
        <pt x="241" y="580" on="1"/>
        <pt x="484" y="580" on="1"/>
        <pt x="484" y="414" on="1"/>
        <pt x="667" y="414" on="1"/>
        <pt x="667" y="165" on="1"/>
        <pt x="484" y="165" on="1"/>
        <pt x="484" y="0" on="1"/>
        <pt x="241" y="0" on="1"/>
        <pt x="241" y="165" on="1"/>
        <pt x="58" y="165" on="1"/>
        <pt x="58" y="414" on="1"/>
        <pt x="241" y="414" on="1"/>
      </contour>
      <contour>
        <pt x="322" y="497" on="1"/>
        <pt x="322" y="341" on="1"/>
        <pt x="139" y="341" on="1"/>
        <pt x="139" y="258" on="1"/>
        <pt x="322" y="258" on="1"/>
        <pt x="322" y="83" on="1"/>
        <pt x="403" y="83" on="1"/>
        <pt x="403" y="258" on="1"/>
        <pt x="586" y="258" on="1"/>
        <pt x="586" y="341" on="1"/>
        <pt x="403" y="341" on="1"/>
        <pt x="403" y="497" on="1"/>
      </contour>
    </TTGlyph>
    <TTGlyph name="uni271A" xMin="58" yMin="0" xMax="667" yMax="580">
      <contour>
        <pt x="241" y="580" on="1"/>
        <pt x="484" y="580" on="1"/>
        <pt x="484" y="414" on="1"/>
        <pt x="667" y="414" on="1"/>
        <pt x="667" y="165" on="1"/>
        <pt x="484" y="165" on="1"/>
        <pt x="484" y="0" on="1"/>
        <pt x="241" y="0" on="1"/>
        <pt x="241" y="165" on="1"/>
        <pt x="58" y="165" on="1"/>
        <pt x="58" y="414" on="1"/>
        <pt x="241" y="414" on="1"/>
      </contour>
    </TTGlyph>
    <TTGlyph name="uni271B" xMin="72" yMin="0" xMax="653" yMax="580">
      <contour>
        <pt x="218" y="580" on="1"/>
        <pt x="290" y="580" on="1"/>
        <pt x="290" y="362" on="1"/>
        <pt x="72" y="362" on="1"/>
        <pt x="72" y="435" on="1"/>
        <pt x="218" y="435" on="1"/>
      </contour>
      <contour>
        <pt x="435" y="580" on="1"/>
        <pt x="508" y="580" on="1"/>
        <pt x="508" y="435" on="1"/>
        <pt x="652" y="435" on="1"/>
        <pt x="652" y="362" on="1"/>
        <pt x="435" y="362" on="1"/>
      </contour>
      <contour>
        <pt x="72" y="218" on="1"/>
        <pt x="290" y="218" on="1"/>
        <pt x="290" y="0" on="1"/>
        <pt x="218" y="0" on="1"/>
        <pt x="218" y="145" on="1"/>
        <pt x="72" y="145" on="1"/>
      </contour>
      <contour>
        <pt x="435" y="218" on="1"/>
        <pt x="652" y="218" on="1"/>
        <pt x="652" y="145" on="1"/>
        <pt x="508" y="145" on="1"/>
        <pt x="508" y="0" on="1"/>
        <pt x="435" y="0" on="1"/>
      </contour>
    </TTGlyph>
    <TTGlyph name="uni271C" xMin="72" yMin="0" xMax="653" yMax="580">
      <contour>
        <pt x="199" y="580" on="1"/>
        <pt x="218" y="580" on="1"/>
        <pt x="218" y="435" on="1"/>
        <pt x="72" y="435" on="1"/>
        <pt x="72" y="453" on="1"/>
        <pt x="199" y="453" on="1"/>
      </contour>
      <contour>
        <pt x="290" y="580" on="1"/>
        <pt x="435" y="580" on="1"/>
        <pt x="435" y="362" on="1"/>
        <pt x="652" y="362" on="1"/>
        <pt x="652" y="218" on="1"/>
        <pt x="435" y="218" on="1"/>
        <pt x="435" y="0" on="1"/>
        <pt x="290" y="0" on="1"/>
        <pt x="290" y="218" on="1"/>
        <pt x="72" y="218" on="1"/>
        <pt x="72" y="362" on="1"/>
        <pt x="290" y="362" on="1"/>
      </contour>
      <contour>
        <pt x="508" y="580" on="1"/>
        <pt x="526" y="580" on="1"/>
        <pt x="526" y="453" on="1"/>
        <pt x="652" y="453" on="1"/>
        <pt x="652" y="435" on="1"/>
        <pt x="508" y="435" on="1"/>
      </contour>
      <contour>
        <pt x="72" y="145" on="1"/>
        <pt x="218" y="145" on="1"/>
        <pt x="218" y="0" on="1"/>
        <pt x="199" y="0" on="1"/>
        <pt x="199" y="127" on="1"/>
        <pt x="72" y="127" on="1"/>
      </contour>
      <contour>
        <pt x="508" y="145" on="1"/>
        <pt x="652" y="145" on="1"/>
        <pt x="652" y="127" on="1"/>
        <pt x="526" y="127" on="1"/>
        <pt x="526" y="0" on="1"/>
        <pt x="508" y="0" on="1"/>
      </contour>
    </TTGlyph>
    <TTGlyph name="uni271D" xMin="159" yMin="0" xMax="566" yMax="580">
      <contour>
        <pt x="322" y="580" on="1"/>
        <pt x="403" y="580" on="1"/>
        <pt x="403" y="414" on="1"/>
        <pt x="566" y="414" on="1"/>
        <pt x="566" y="331" on="1"/>
        <pt x="403" y="331" on="1"/>
        <pt x="403" y="0" on="1"/>
        <pt x="322" y="0" on="1"/>
        <pt x="322" y="331" on="1"/>
        <pt x="160" y="331" on="1"/>
        <pt x="160" y="414" on="1"/>
        <pt x="322" y="414" on="1"/>
      </contour>
    </TTGlyph>
    <TTGlyph name="uni271F" xMin="159" yMin="0" xMax="566" yMax="580">
      <contour>
        <pt x="241" y="580" on="1"/>
        <pt x="484" y="580" on="1"/>
        <pt x="484" y="497" on="1"/>
        <pt x="566" y="497" on="1"/>
        <pt x="566" y="249" on="1"/>
        <pt x="484" y="249" on="1"/>
        <pt x="484" y="0" on="1"/>
        <pt x="241" y="0" on="1"/>
        <pt x="241" y="249" on="1"/>
        <pt x="160" y="249" on="1"/>
        <pt x="160" y="497" on="1"/>
        <pt x="241" y="497" on="1"/>
      </contour>
      <contour>
        <pt x="322" y="497" on="1"/>
        <pt x="322" y="414" on="1"/>
        <pt x="241" y="414" on="1"/>
        <pt x="241" y="331" on="1"/>
        <pt x="322" y="331" on="1"/>
        <pt x="322" y="83" on="1"/>
        <pt x="403" y="83" on="1"/>
        <pt x="403" y="331" on="1"/>
        <pt x="484" y="331" on="1"/>
        <pt x="484" y="414" on="1"/>
        <pt x="403" y="414" on="1"/>
        <pt x="403" y="497" on="1"/>
      </contour>
    </TTGlyph>
    <TTGlyph name="uni2779" xMin="57" yMin="-1" xMax="668" yMax="581">
      <component glyphName="uni278D" x="0" y="0" flags="0x1004"/>
    </TTGlyph>
    <TTGlyph name="uni277C" xMin="57" yMin="-1" xMax="668" yMax="581">
      <component glyphName="uni2790" x="0" y="0" flags="0x1004"/>
    </TTGlyph>
    <TTGlyph name="uni278D" xMin="57" yMin="-1" xMax="668" yMax="581">
      <contour>
        <pt x="236" y="580" on="0"/>
        <pt x="489" y="580" on="0"/>
        <pt x="667" y="410" on="0"/>
        <pt x="667" y="170" on="0"/>
        <pt x="489" y="0" on="0"/>
        <pt x="236" y="0" on="0"/>
        <pt x="58" y="170" on="0"/>
        <pt x="58" y="410" on="0"/>
      </contour>
      <contour>
        <pt x="224" y="483" on="1"/>
        <pt x="160" y="117" on="1"/>
        <pt x="484" y="117" on="1"/>
        <pt x="484" y="97" on="1"/>
        <pt x="566" y="97" on="1"/>
        <pt x="566" y="192" on="1"/>
        <pt x="484" y="192" on="1"/>
        <pt x="484" y="172" on="1"/>
        <pt x="440" y="172" on="1"/>
        <pt x="494" y="483" on="1"/>
      </contour>
    </TTGlyph>
    <TTGlyph name="uni2790" xMin="57" yMin="-1" xMax="668" yMax="581">
      <contour>
        <pt x="236" y="580" on="0"/>
        <pt x="489" y="580" on="0"/>
        <pt x="667" y="410" on="0"/>
        <pt x="667" y="170" on="0"/>
        <pt x="489" y="0" on="0"/>
        <pt x="236" y="0" on="0"/>
        <pt x="58" y="170" on="0"/>
        <pt x="58" y="410" on="0"/>
      </contour>
      <contour>
        <pt x="160" y="483" on="1"/>
        <pt x="160" y="428" on="1"/>
        <pt x="285" y="428" on="1"/>
        <pt x="227" y="97" on="1"/>
        <pt x="498" y="97" on="1"/>
        <pt x="566" y="483" on="1"/>
      </contour>
    </TTGlyph>
    <TTGlyph name="uni29E9" xMin="58" yMin="0" xMax="667" yMax="580">
      <contour>
        <pt x="58" y="580" on="1"/>
        <pt x="667" y="580" on="1"/>
        <pt x="667" y="497" on="1"/>
        <pt x="586" y="497" on="1"/>
        <pt x="586" y="0" on="1"/>
        <pt x="505" y="0" on="1"/>
        <pt x="505" y="331" on="1"/>
        <pt x="220" y="331" on="1"/>
        <pt x="220" y="0" on="1"/>
        <pt x="139" y="0" on="1"/>
        <pt x="139" y="497" on="1"/>
        <pt x="58" y="497" on="1"/>
      </contour>
      <contour>
        <pt x="220" y="497" on="1"/>
        <pt x="220" y="414" on="1"/>
        <pt x="505" y="414" on="1"/>
        <pt x="505" y="497" on="1"/>
      </contour>
    </TTGlyph>
    <TTGlyph name="uniFF01" xMin="321" yMin="0" xMax="404" yMax="580">
      <component glyphName="exclam" x="0" y="0" flags="0x1004"/>
    </TTGlyph>
    <TTGlyph name="uniFF02" xMin="240" yMin="414" xMax="485" yMax="580">
      <component glyphName="quotedbl" x="0" y="0" flags="0x1004"/>
    </TTGlyph>
    <TTGlyph name="uniFF07" xMin="321" yMin="414" xMax="404" yMax="580">
      <component glyphName="quotesingle" x="0" y="0" flags="0x1004"/>
    </TTGlyph>
    <TTGlyph name="uniFF0B" xMin="156" yMin="0" xMax="563" yMax="415">
      <component glyphName="plus" x="0" y="0" flags="0x1004"/>
    </TTGlyph>
    <TTGlyph name="uniFF0D" xMin="159" yMin="165" xMax="566" yMax="249">
      <component glyphName="hyphen" x="0" y="0" flags="0x1004"/>
    </TTGlyph>
    <TTGlyph name="uniFF0E" xMin="321" yMin="0" xMax="404" yMax="83">
      <component glyphName="period" x="0" y="0" flags="0x1004"/>
    </TTGlyph>
    <TTGlyph name="uniFF11" xMin="58" yMin="0" xMax="566" yMax="580">
      <component glyphName="one" x="0" y="0" flags="0x1004"/>
    </TTGlyph>
    <TTGlyph name="uniFF14" xMin="58" yMin="0" xMax="667" yMax="580">
      <component glyphName="four" x="0" y="0" flags="0x1004"/>
    </TTGlyph>
    <TTGlyph name="uniFF17" xMin="58" yMin="0" xMax="667" yMax="580">
      <component glyphName="seven" x="0" y="0" flags="0x1004"/>
    </TTGlyph>
    <TTGlyph name="uniFF1A" xMin="321" yMin="0" xMax="404" yMax="415">
      <component glyphName="colon" x="0" y="0" flags="0x1004"/>
    </TTGlyph>
    <TTGlyph name="uniFF1D" xMin="159" yMin="82" xMax="566" yMax="332">
      <component glyphName="equal" x="0" y="0" flags="0x1004"/>
    </TTGlyph>
    <TTGlyph name="uniFF21" xMin="58" yMin="0" xMax="667" yMax="580">
      <component glyphName="A" x="0" y="0" flags="0x1004"/>
    </TTGlyph>
    <TTGlyph name="uniFF22" xMin="58" yMin="0" xMax="667" yMax="580">
      <component glyphName="B" x="0" y="0" flags="0x1004"/>
    </TTGlyph>
    <TTGlyph name="uniFF23" xMin="57" yMin="-17" xMax="667" yMax="597">
      <component glyphName="C" x="0" y="0" flags="0x1004"/>
    </TTGlyph>
    <TTGlyph name="uniFF24" xMin="58" yMin="0" xMax="667" yMax="580">
      <component glyphName="D" x="0" y="0" flags="0x1004"/>
    </TTGlyph>
    <TTGlyph name="uniFF25" xMin="58" yMin="0" xMax="667" yMax="580">
      <component glyphName="E" x="0" y="0" flags="0x1004"/>
    </TTGlyph>
    <TTGlyph name="uniFF26" xMin="58" yMin="0" xMax="667" yMax="580">
      <component glyphName="F" x="0" y="0" flags="0x1004"/>
    </TTGlyph>
    <TTGlyph name="uniFF27" xMin="58" yMin="0" xMax="667" yMax="597">
      <component glyphName="G" x="0" y="0" flags="0x1004"/>
    </TTGlyph>
    <TTGlyph name="uniFF28" xMin="58" yMin="0" xMax="667" yMax="580">
      <component glyphName="H" x="0" y="0" flags="0x1004"/>
    </TTGlyph>
    <TTGlyph name="uniFF29" xMin="159" yMin="0" xMax="566" yMax="580">
      <component glyphName="I" x="0" y="0" flags="0x1004"/>
    </TTGlyph>
    <TTGlyph name="uniFF2A" xMin="58" yMin="-17" xMax="668" yMax="580">
      <component glyphName="J" x="0" y="0" flags="0x1004"/>
    </TTGlyph>
    <TTGlyph name="uniFF2B" xMin="58" yMin="0" xMax="667" yMax="580">
      <component glyphName="K" x="0" y="0" flags="0x1004"/>
    </TTGlyph>
    <TTGlyph name="uniFF2C" xMin="58" yMin="0" xMax="667" yMax="580">
      <component glyphName="L" x="0" y="0" flags="0x1004"/>
    </TTGlyph>
    <TTGlyph name="uniFF2D" xMin="58" yMin="0" xMax="667" yMax="580">
      <component glyphName="M" x="0" y="0" flags="0x1004"/>
    </TTGlyph>
    <TTGlyph name="uniFF2E" xMin="58" yMin="0" xMax="667" yMax="580">
      <component glyphName="N" x="0" y="0" flags="0x1004"/>
    </TTGlyph>
    <TTGlyph name="uniFF2F" xMin="57" yMin="-17" xMax="667" yMax="597">
      <component glyphName="O" x="0" y="0" flags="0x1004"/>
    </TTGlyph>
    <TTGlyph name="uniFF30" xMin="58" yMin="0" xMax="667" yMax="580">
      <component glyphName="P" x="0" y="0" flags="0x1004"/>
    </TTGlyph>
    <TTGlyph name="uniFF31" xMin="58" yMin="0" xMax="667" yMax="597">
      <component glyphName="Q" x="0" y="0" flags="0x1004"/>
    </TTGlyph>
    <TTGlyph name="uniFF32" xMin="58" yMin="0" xMax="667" yMax="580">
      <component glyphName="R" x="0" y="0" flags="0x1004"/>
    </TTGlyph>
    <TTGlyph name="uniFF34" xMin="58" yMin="0" xMax="667" yMax="580">
      <component glyphName="T" x="0" y="0" flags="0x1004"/>
    </TTGlyph>
    <TTGlyph name="uniFF35" xMin="58" yMin="-17" xMax="667" yMax="580">
      <component glyphName="U" x="0" y="0" flags="0x1004"/>
    </TTGlyph>
    <TTGlyph name="uniFF36" xMin="58" yMin="0" xMax="667" yMax="580">
      <component glyphName="V" x="0" y="0" flags="0x1004"/>
    </TTGlyph>
    <TTGlyph name="uniFF37" xMin="0" yMin="0" xMax="725" yMax="580">
      <component glyphName="W" x="0" y="0" flags="0x1004"/>
    </TTGlyph>
    <TTGlyph name="uniFF38" xMin="58" yMin="0" xMax="667" yMax="580">
      <component glyphName="X" x="0" y="0" flags="0x1004"/>
    </TTGlyph>
    <TTGlyph name="uniFF39" xMin="58" yMin="0" xMax="667" yMax="580">
      <component glyphName="Y" x="0" y="0" flags="0x1004"/>
    </TTGlyph>
    <TTGlyph name="uniFF3A" xMin="58" yMin="0" xMax="667" yMax="580">
      <component glyphName="Z" x="0" y="0" flags="0x1004"/>
    </TTGlyph>
    <TTGlyph name="uniFF3E" xMin="240" yMin="583" xMax="485" yMax="720">
      <component glyphName="asciicircum" x="0" y="0" flags="0x1004"/>
    </TTGlyph>
    <TTGlyph name="uniFF3F" xMin="0" yMin="-140" xMax="725" yMax="-57">
      <component glyphName="underscore" x="0" y="0" flags="0x1004"/>
    </TTGlyph>
    <TTGlyph name="uniFF40" xMin="301" yMin="583" xMax="424" yMax="720">
      <component glyphName="grave" x="0" y="0" flags="0x1004"/>
    </TTGlyph>
    <TTGlyph name="uniFF41" xMin="58" yMin="0" xMax="667" yMax="580">
      <component glyphName="a" x="0" y="0" flags="0x1004"/>
    </TTGlyph>
    <TTGlyph name="uniFF42" xMin="58" yMin="0" xMax="667" yMax="580">
      <component glyphName="b" x="0" y="0" flags="0x1004"/>
    </TTGlyph>
    <TTGlyph name="uniFF43" xMin="57" yMin="-17" xMax="667" yMax="597">
      <component glyphName="c" x="0" y="0" flags="0x1004"/>
    </TTGlyph>
    <TTGlyph name="uniFF44" xMin="58" yMin="0" xMax="667" yMax="580">
      <component glyphName="d" x="0" y="0" flags="0x1004"/>
    </TTGlyph>
    <TTGlyph name="uniFF45" xMin="58" yMin="0" xMax="667" yMax="580">
      <component glyphName="e" x="0" y="0" flags="0x1004"/>
    </TTGlyph>
    <TTGlyph name="uniFF46" xMin="58" yMin="0" xMax="667" yMax="580">
      <component glyphName="f" x="0" y="0" flags="0x1004"/>
    </TTGlyph>
    <TTGlyph name="uniFF47" xMin="58" yMin="0" xMax="667" yMax="597">
      <component glyphName="g" x="0" y="0" flags="0x1004"/>
    </TTGlyph>
    <TTGlyph name="uniFF48" xMin="58" yMin="0" xMax="667" yMax="580">
      <component glyphName="h" x="0" y="0" flags="0x1004"/>
    </TTGlyph>
    <TTGlyph name="uniFF49" xMin="159" yMin="0" xMax="566" yMax="580">
      <component glyphName="i" x="0" y="0" flags="0x1004"/>
    </TTGlyph>
    <TTGlyph name="uniFF4A" xMin="58" yMin="-17" xMax="668" yMax="580">
      <component glyphName="j" x="0" y="0" flags="0x1004"/>
    </TTGlyph>
    <TTGlyph name="uniFF4B" xMin="58" yMin="0" xMax="667" yMax="580">
      <component glyphName="k" x="0" y="0" flags="0x1004"/>
    </TTGlyph>
    <TTGlyph name="uniFF4C" xMin="58" yMin="0" xMax="667" yMax="580">
      <component glyphName="l" x="0" y="0" flags="0x1004"/>
    </TTGlyph>
    <TTGlyph name="uniFF4D" xMin="58" yMin="0" xMax="667" yMax="580">
      <component glyphName="m" x="0" y="0" flags="0x1004"/>
    </TTGlyph>
    <TTGlyph name="uniFF4E" xMin="58" yMin="0" xMax="667" yMax="580">
      <component glyphName="n" x="0" y="0" flags="0x1004"/>
    </TTGlyph>
    <TTGlyph name="uniFF4F" xMin="57" yMin="-17" xMax="667" yMax="597">
      <component glyphName="o" x="0" y="0" flags="0x1004"/>
    </TTGlyph>
    <TTGlyph name="uniFF50" xMin="58" yMin="0" xMax="667" yMax="580">
      <component glyphName="p" x="0" y="0" flags="0x1004"/>
    </TTGlyph>
    <TTGlyph name="uniFF51" xMin="58" yMin="0" xMax="667" yMax="597">
      <component glyphName="q" x="0" y="0" flags="0x1004"/>
    </TTGlyph>
    <TTGlyph name="uniFF52" xMin="58" yMin="0" xMax="667" yMax="580">
      <component glyphName="r" x="0" y="0" flags="0x1004"/>
    </TTGlyph>
    <TTGlyph name="uniFF54" xMin="58" yMin="0" xMax="667" yMax="580">
      <component glyphName="t" x="0" y="0" flags="0x1004"/>
    </TTGlyph>
    <TTGlyph name="uniFF55" xMin="58" yMin="-17" xMax="667" yMax="580">
      <component glyphName="u" x="0" y="0" flags="0x1004"/>
    </TTGlyph>
    <TTGlyph name="uniFF56" xMin="58" yMin="0" xMax="667" yMax="580">
      <component glyphName="v" x="0" y="0" flags="0x1004"/>
    </TTGlyph>
    <TTGlyph name="uniFF57" xMin="0" yMin="0" xMax="725" yMax="580">
      <component glyphName="w" x="0" y="0" flags="0x1004"/>
    </TTGlyph>
    <TTGlyph name="uniFF58" xMin="58" yMin="0" xMax="667" yMax="580">
      <component glyphName="x" x="0" y="0" flags="0x1004"/>
    </TTGlyph>
    <TTGlyph name="uniFF59" xMin="58" yMin="0" xMax="667" yMax="580">
      <component glyphName="y" x="0" y="0" flags="0x1004"/>
    </TTGlyph>
    <TTGlyph name="uniFF5A" xMin="58" yMin="0" xMax="667" yMax="580">
      <component glyphName="z" x="0" y="0" flags="0x1004"/>
    </TTGlyph>
    <TTGlyph name="uniFF5C" xMin="321" yMin="0" xMax="404" yMax="580">
      <component glyphName="bar" x="0" y="0" flags="0x1004"/>
    </TTGlyph>
    <TTGlyph name="uniFFE4" xMin="321" yMin="0" xMax="404" yMax="580">
      <component glyphName="brokenbar" x="0" y="0" flags="0x1004"/>
    </TTGlyph>
    <TTGlyph name="uniFFE5" xMin="58" yMin="0" xMax="667" yMax="580">
      <component glyphName="yen" x="0" y="0" flags="0x1004"/>
    </TTGlyph>
    <TTGlyph name="uniFFED" xMin="159" yMin="82" xMax="566" yMax="498">
      <contour>
        <pt x="160" y="497" on="1"/>
        <pt x="566" y="497" on="1"/>
        <pt x="566" y="83" on="1"/>
        <pt x="160" y="83" on="1"/>
      </contour>
    </TTGlyph>
    <TTGlyph name="upblock" xMin="0" yMin="290" xMax="725" yMax="720">
      <contour>
        <pt x="725" y="720" on="1"/>
        <pt x="725" y="290" on="1"/>
        <pt x="0" y="290" on="1"/>
        <pt x="0" y="720" on="1"/>
      </contour>
    </TTGlyph>
    <TTGlyph name="v" xMin="58" yMin="0" xMax="667" yMax="580">
      <component glyphName="V" x="0" y="0" flags="0x1004"/>
    </TTGlyph>
    <TTGlyph name="w" xMin="0" yMin="0" xMax="725" yMax="580">
      <component glyphName="W" x="0" y="0" flags="0x1004"/>
    </TTGlyph>
    <TTGlyph name="wdieresis" xMin="0" yMin="0" xMax="725" yMax="705">
      <component glyphName="Wdieresis" x="0" y="0" flags="0x1004"/>
    </TTGlyph>
    <TTGlyph name="x" xMin="58" yMin="0" xMax="667" yMax="580">
      <component glyphName="X" x="0" y="0" flags="0x1004"/>
    </TTGlyph>
    <TTGlyph name="y" xMin="58" yMin="0" xMax="667" yMax="580">
      <component glyphName="Y" x="0" y="0" flags="0x1004"/>
    </TTGlyph>
    <TTGlyph name="ydieresis" xMin="58" yMin="0" xMax="667" yMax="705">
      <component glyphName="Ydieresis" x="0" y="0" flags="0x1004"/>
    </TTGlyph>
    <TTGlyph name="yen" xMin="58" yMin="0" xMax="667" yMax="580">
      <contour>
        <pt x="58" y="580" on="1"/>
        <pt x="139" y="580" on="1"/>
        <pt x="362" y="489" on="1"/>
        <pt x="586" y="580" on="1"/>
        <pt x="667" y="580" on="1"/>
        <pt x="667" y="497" on="1"/>
        <pt x="566" y="456" on="1"/>
        <pt x="566" y="331" on="1"/>
        <pt x="667" y="331" on="1"/>
        <pt x="667" y="249" on="1"/>
        <pt x="566" y="249" on="1"/>
        <pt x="566" y="166" on="1"/>
        <pt x="667" y="166" on="1"/>
        <pt x="667" y="83" on="1"/>
        <pt x="566" y="83" on="1"/>
        <pt x="566" y="0" on="1"/>
        <pt x="160" y="0" on="1"/>
        <pt x="160" y="83" on="1"/>
        <pt x="58" y="83" on="1"/>
        <pt x="58" y="166" on="1"/>
        <pt x="160" y="166" on="1"/>
        <pt x="160" y="249" on="1"/>
        <pt x="58" y="249" on="1"/>
        <pt x="58" y="331" on="1"/>
        <pt x="160" y="331" on="1"/>
        <pt x="160" y="456" on="1"/>
        <pt x="58" y="497" on="1"/>
      </contour>
    </TTGlyph>
    <TTGlyph name="z" xMin="58" yMin="0" xMax="667" yMax="580">
      <component glyphName="Z" x="0" y="0" flags="0x1004"/>
    </TTGlyph>
    <TTGlyph name="zdotaccent" xMin="58" yMin="0" xMax="667" yMax="705">
      <component glyphName="Zdotaccent" x="0" y="0" flags="0x1004"/>
    </TTGlyph>
</ttFont>
